<?xml version="1.0" encoding="UTF-8" standalone="no"?>
<!DOCTYPE svg PUBLIC "-//W3C//DTD SVG 1.1//EN" "http://www.w3.org/Graphics/SVG/1.1/DTD/svg11.dtd">
<svg xmlns="http://www.w3.org/2000/svg" version="1.1" viewBox="0.00 0.00 1738.00 1764.00">
<path fill="#151515" d="
  M 1511.75 80.02
  Q 1526.67 79.86 1532.55 80.23
  Q 1544.04 80.94 1558.21 85.24
  A 0.89 0.89 0.0 0 1 1558.83 85.95
  C 1560.17 94.57 1557.89 106.75 1549.19 110.89
  Q 1542.71 113.97 1542.61 114.04
  C 1539.53 116.20 1539.40 117.70 1541.12 121.14
  C 1542.76 124.38 1543.49 126.18 1542.69 130.03
  C 1542.03 133.21 1542.20 134.64 1543.51 136.99
  C 1546.44 142.24 1560.34 135.85 1564.30 133.79
  Q 1567.97 131.88 1578.41 125.42
  C 1580.56 124.10 1582.15 122.58 1583.10 119.93
  C 1585.97 111.84 1589.39 103.51 1595.82 97.59
  A 1.14 1.13 -51.8 0 1 1597.13 97.43
  C 1604.27 101.35 1613.76 118.11 1608.87 125.86
  Q 1602.67 135.68 1596.94 145.39
  A 1.17 1.17 0.0 0 1 1595.10 145.62
  L 1590.17 140.69
  A 2.44 2.44 0.0 0 0 1588.31 139.98
  Q 1586.54 140.07 1584.90 139.48
  A 2.60 2.54 43.1 0 0 1583.09 139.52
  L 1577.42 141.85
  A 4.18 3.92 12.3 0 0 1576.35 142.49
  C 1573.36 144.96 1570.70 146.76 1568.31 149.20
  Q 1556.76 161.00 1553.73 163.96
  Q 1546.51 171.00 1537.04 174.80
  A 2.24 2.19 -55.7 0 1 1536.19 174.97
  L 1525.79 175.11
  A 0.86 0.86 0.0 0 1 1525.00 173.91
  C 1526.35 170.85 1528.55 166.42 1527.85 162.59
  A 1.91 1.90 86.0 0 0 1526.07 161.04
  C 1522.28 160.88 1517.01 165.04 1515.42 167.43
  Q 1513.71 169.99 1513.01 170.52
  A 0.93 0.93 0.0 0 1 1512.09 170.63
  Q 1502.58 166.56 1492.71 163.89
  A 0.70 0.70 0.0 0 1 1492.74 162.53
  L 1534.22 153.18
  A 2.71 2.68 55.0 0 1 1536.29 153.56
  C 1543.71 158.39 1549.98 161.23 1558.68 156.91
  C 1562.45 155.04 1565.68 151.06 1562.38 146.86
  Q 1560.81 144.85 1558.24 144.98
  C 1554.64 145.17 1550.80 146.33 1547.25 145.46
  C 1543.68 144.58 1540.50 142.60 1538.38 139.59
  Q 1537.13 137.81 1535.24 135.68
  A 4.98 4.94 74.1 0 0 1532.39 134.08
  C 1518.65 131.69 1505.92 128.31 1492.23 131.61
  Q 1479.01 134.80 1470.83 144.98
  C 1468.52 147.84 1466.03 150.67 1464.41 152.51
  Q 1462.81 154.33 1460.70 156.07
  Q 1443.89 169.96 1440.42 173.17
  Q 1436.39 176.89 1432.66 181.65
  C 1431.44 183.21 1429.28 183.99 1427.17 184.09
  Q 1418.01 184.48 1411.48 183.21
  Q 1408.57 182.65 1398.20 179.34
  C 1383.80 174.75 1371.64 174.77 1355.48 175.08
  A 2.27 2.26 -58.5 0 0 1354.53 175.31
  Q 1352.76 176.22 1351.98 177.55
  Q 1349.72 181.40 1347.95 184.30
  A 5.21 5.20 -81.8 0 1 1344.88 186.60
  Q 1328.93 190.91 1311.40 198.64
  Q 1299.93 203.70 1293.56 208.06
  Q 1287.48 212.21 1274.72 222.20
  Q 1269.58 226.22 1260.82 230.01
  Q 1252.70 233.52 1241.79 233.17
  C 1240.41 233.13 1239.13 233.72 1238.26 233.66
  A 2.87 2.78 -30.4 0 1 1237.27 233.42
  Q 1234.08 232.01 1232.21 228.27
  A 2.29 2.16 33.5 0 1 1231.98 227.29
  L 1231.98 221.37
  A 0.51 0.44 59.2 0 1 1232.01 221.20
  C 1233.88 216.68 1232.69 209.98 1227.45 208.15
  A 1.25 1.22 42.5 0 0 1226.53 208.18
  C 1221.30 210.43 1222.15 216.60 1217.01 218.58
  A 1.30 1.30 0.0 0 1 1216.10 218.60
  C 1213.00 217.51 1212.88 215.10 1213.57 212.09
  Q 1214.78 206.80 1215.07 204.92
  Q 1215.17 204.21 1215.73 202.76
  Q 1216.16 201.65 1215.90 199.60
  A 1.05 1.02 -78.0 0 0 1215.42 198.84
  Q 1215.00 198.57 1214.97 197.61
  A 0.61 0.60 0.0 0 0 1214.37 197.02
  Q 1211.89 197.02 1211.31 197.32
  Q 1207.40 199.38 1205.92 199.96
  A 2.62 2.51 9.7 0 0 1204.93 200.63
  Q 1203.89 201.75 1202.66 202.00
  A 0.78 0.78 0.0 0 0 1202.04 202.76
  L 1202.04 223.18
  A 1.02 0.97 65.7 0 1 1201.82 223.81
  Q 1200.95 224.90 1199.09 225.05
  Q 1193.41 225.53 1188.91 223.44
  A 2.35 2.34 -49.8 0 0 1186.58 223.64
  Q 1180.41 227.92 1175.31 233.14
  C 1172.80 235.72 1169.07 238.85 1165.56 235.73
  A 2.05 1.71 8.8 0 1 1165.25 235.38
  C 1158.56 225.45 1152.08 218.79 1141.77 213.29
  A 1.55 1.53 -39.7 0 0 1140.58 213.19
  C 1137.19 214.28 1138.05 218.44 1138.04 221.76
  A 2.05 2.04 75.0 0 1 1137.02 223.53
  Q 1134.20 225.15 1131.26 225.57
  A 2.16 2.06 -38.2 0 1 1130.33 225.48
  Q 1127.02 224.39 1126.94 219.80
  Q 1126.81 211.89 1126.97 208.96
  C 1127.14 205.56 1126.64 202.88 1123.80 201.45
  Q 1120.67 199.88 1118.66 202.92
  C 1116.06 206.86 1116.17 210.79 1115.62 214.79
  A 3.85 3.82 82.7 0 1 1113.30 217.81
  Q 1110.39 219.03 1106.53 219.01
  C 1102.54 218.99 1100.80 222.72 1098.11 225.42
  A 1.69 1.61 -70.7 0 1 1097.19 225.89
  C 1093.32 226.50 1091.43 225.96 1088.54 223.13
  C 1084.11 218.80 1080.97 215.66 1076.77 213.26
  A 2.37 2.37 0.0 0 0 1074.11 213.47
  C 1070.91 216.01 1069.10 219.50 1067.70 222.81
  A 1.83 1.80 83.9 0 1 1067.08 223.59
  Q 1066.41 224.07 1063.81 224.09
  Q 1061.41 224.10 1057.86 226.55
  A 3.01 2.99 81.1 0 0 1056.66 228.21
  L 1054.13 236.96
  A 1.63 1.63 0.0 0 1 1051.57 237.79
  L 1049.93 236.52
  A 1.82 1.79 -24.6 0 0 1048.88 236.14
  L 1043.65 235.97
  A 1.21 1.14 -28.2 0 1 1043.13 235.83
  Q 1038.60 233.35 1036.24 228.69
  A 1.75 1.75 0.0 0 1 1037.79 226.15
  Q 1045.12 226.08 1049.83 224.86
  Q 1053.33 223.95 1052.92 219.90
  Q 1052.86 219.22 1050.99 217.48
  A 1.47 1.44 67.9 0 0 1050.07 217.08
  Q 1048.18 216.96 1045.52 216.15
  Q 1043.15 215.44 1037.80 216.73
  A 6.48 5.52 31.2 0 1 1036.94 216.87
  Q 1035.43 217.03 1031.00 217.03
  Q 1001.49 217.08 891.36 217.05
  Q 888.61 217.05 887.17 216.76
  C 885.34 216.40 883.67 217.01 881.60 217.05
  Q 874.55 217.18 872.99 217.46
  Q 863.86 219.08 855.51 220.78
  Q 848.84 222.14 841.33 222.12
  C 833.66 222.09 825.77 219.34 819.13 216.23
  C 817.04 215.26 815.23 216.19 813.69 217.80
  C 810.57 221.08 808.98 222.92 806.08 225.02
  Q 801.32 228.47 794.10 229.59
  Q 792.75 229.80 790.60 227.97
  A 2.32 2.26 9.3 0 1 789.98 227.13
  C 788.19 223.06 785.25 216.84 781.86 214.39
  C 778.90 212.26 775.56 217.77 774.83 219.95
  Q 772.82 226.00 770.20 235.19
  Q 769.49 237.71 768.41 239.09
  A 1.42 1.42 0.0 0 1 766.03 238.87
  Q 762.58 232.32 760.40 223.96
  Q 759.87 221.95 757.10 219.67
  A 1.78 1.70 69.9 0 0 756.41 219.33
  L 750.94 218.07
  A 2.40 1.94 -32.5 0 0 750.42 218.01
  Q 741.24 218.10 737.03 218.42
  Q 720.80 219.65 700.23 220.86
  Q 681.54 221.96 629.04 224.58
  Q 619.38 225.06 611.50 225.04
  Q 607.72 225.03 603.64 225.76
  A 11.60 11.01 -12.9 0 1 602.01 225.93
  L 596.23 226.12
  A 1.83 1.73 26.6 0 0 595.37 226.38
  C 592.22 228.35 591.49 230.97 590.97 234.03
  A 1.51 1.51 0.0 0 1 587.98 233.82
  Q 587.67 222.86 575.95 221.12
  C 571.44 220.45 566.73 226.33 565.24 229.74
  Q 564.36 231.74 563.33 234.12
  A 1.97 1.89 -8.8 0 1 562.75 234.88
  C 559.53 237.48 552.83 239.87 549.37 236.62
  A 2.06 1.95 -84.6 0 1 548.97 236.11
  Q 547.30 233.01 547.02 231.31
  C 546.37 227.51 543.47 222.99 539.15 224.10
  A 2.34 2.34 0.0 0 0 538.36 224.47
  Q 535.06 226.79 534.01 226.95
  Q 531.71 227.28 524.92 227.03
  A 1.96 1.95 32.2 0 0 523.94 227.25
  Q 520.43 229.08 519.71 231.56
  C 518.35 236.25 517.97 239.11 516.00 241.69
  A 1.15 1.15 0.0 0 1 514.00 241.38
  L 512.71 237.81
  A 5.05 4.66 -61.2 0 1 512.48 236.88
  Q 511.01 226.92 504.62 219.51
  Q 502.96 217.58 499.31 216.11
  A 1.32 1.31 -49.2 0 0 498.15 216.20
  C 493.83 218.75 492.60 221.45 490.99 225.17
  C 489.22 229.28 485.67 232.05 481.81 228.11
  A 1.30 0.65 28.9 0 1 481.72 227.99
  L 474.88 217.92
  A 2.43 2.37 -0.8 0 0 474.11 217.19
  Q 471.12 215.42 468.52 215.22
  C 455.25 214.23 442.99 213.26 429.94 215.63
  Q 418.61 217.68 406.01 218.95
  Q 403.00 219.26 400.70 218.78
  C 398.30 218.28 395.98 215.56 394.07 214.06
  Q 384.18 206.26 375.55 204.50
  Q 371.72 203.72 364.84 203.90
  C 357.40 204.11 348.41 208.23 342.68 212.21
  A 4.24 4.24 0.0 0 1 340.49 212.95
  Q 333.90 213.28 330.14 212.77
  C 322.22 211.70 314.18 212.23 306.74 211.92
  C 304.41 211.82 302.02 211.09 300.41 211.13
  A 7.08 5.00 3.5 0 0 299.42 211.20
  Q 295.99 211.64 294.59 210.13
  Q 287.41 202.40 277.73 204.29
  Q 273.85 205.05 267.00 206.76
  Q 259.22 208.71 251.96 207.87
  A 1.55 1.37 -25.3 0 1 251.51 207.74
  L 243.73 203.98
  A 5.45 5.37 63.9 0 0 242.50 203.55
  Q 236.22 202.17 235.01 201.97
  Q 215.17 198.76 184.04 194.49
  C 179.66 193.89 175.81 194.18 171.66 192.33
  Q 162.41 188.22 154.67 183.08
  Q 138.28 172.19 125.81 159.97
  Q 116.19 150.55 110.10 139.70
  Q 105.12 130.84 106.00 121.05
  A 1.54 1.49 62.4 0 1 106.15 120.54
  L 109.13 114.61
  A 5.06 5.05 -85.6 0 1 112.09 112.07
  C 116.71 110.55 119.27 110.20 121.68 106.45
  A 1.78 1.75 -32.2 0 0 121.95 105.30
  Q 121.75 103.54 122.57 102.68
  A 1.21 1.20 -25.1 0 0 122.90 101.78
  C 122.81 100.41 122.20 99.44 122.11 98.06
  C 122.03 96.91 122.68 95.24 122.76 93.63
  Q 123.59 78.16 133.63 65.88
  Q 134.62 64.68 137.61 65.25
  Q 141.02 65.90 142.71 66.30
  A 3.20 3.16 48.3 0 0 143.80 66.37
  C 148.73 65.85 150.99 65.84 155.63 64.77
  C 162.39 63.23 169.15 61.65 175.79 61.96
  A 1.86 1.80 -24.6 0 1 176.76 62.30
  Q 178.18 63.33 178.97 64.34
  C 184.92 71.92 190.56 80.81 195.26 86.46
  Q 196.75 88.26 199.73 87.96
  A 2.19 2.16 -68.1 0 0 200.93 87.44
  C 204.59 84.26 209.50 78.66 207.56 73.65
  C 205.71 68.85 200.33 51.08 208.63 49.95
  Q 211.52 49.55 214.27 49.88
  Q 220.06 50.57 224.98 51.17
  A 5.61 5.59 -19.9 0 1 228.15 52.65
  C 230.84 55.14 232.28 58.30 234.74 61.01
  C 242.03 69.05 248.46 75.46 260.29 72.07
  C 266.63 70.25 271.92 64.23 276.73 58.53
  C 279.53 55.22 282.18 53.14 285.59 56.94
  C 291.69 63.73 301.03 77.06 311.32 76.04
  C 315.80 75.60 319.89 71.87 322.38 68.18
  Q 323.50 66.53 326.19 66.13
  A 2.26 2.21 -37.1 0 1 327.38 66.28
  Q 336.31 70.01 337.87 70.39
  Q 345.87 72.33 353.50 71.76
  C 360.35 71.25 369.89 68.72 377.13 68.27
  Q 390.27 67.44 401.49 68.73
  C 405.79 69.22 409.82 69.06 413.45 66.64
  A 2.27 2.10 -3.4 0 0 414.12 65.94
  Q 415.46 63.72 414.64 61.40
  Q 412.14 54.35 411.33 51.49
  C 409.20 43.91 420.26 47.40 423.84 48.78
  A 2.07 2.04 -40.7 0 0 425.03 48.86
  C 430.96 47.45 431.30 40.97 432.25 35.50
  C 432.76 32.57 435.09 28.40 438.70 29.09
  C 440.91 29.51 446.99 31.81 448.38 33.96
  C 451.27 38.45 449.25 42.54 446.48 46.75
  Q 441.21 54.76 440.81 55.29
  C 437.01 60.29 435.94 69.08 443.58 71.36
  A 3.20 3.19 -52.4 0 0 446.17 71.02
  Q 460.82 61.94 473.51 53.75
  Q 475.08 52.74 477.02 52.93
  A 1.70 1.65 -22.2 0 1 477.89 53.28
  Q 479.91 54.92 483.18 60.08
  Q 488.02 67.69 496.67 68.81
  Q 499.65 69.20 506.36 67.80
  Q 514.99 66.00 521.75 65.91
  Q 526.31 65.85 532.82 67.63
  C 543.63 70.59 553.55 71.90 565.19 72.01
  Q 576.80 72.12 583.73 71.56
  Q 584.58 71.49 590.10 70.97
  Q 592.81 70.71 596.43 69.98
  Q 611.74 66.88 625.78 61.82
  C 634.93 58.53 643.74 53.91 653.26 49.53
  Q 660.91 46.01 671.25 45.11
  Q 672.94 44.96 677.72 45.27
  C 686.52 45.83 694.52 47.88 701.59 53.11
  Q 705.47 55.97 710.29 61.37
  C 713.78 65.28 717.01 68.51 721.48 73.68
  Q 725.48 78.31 731.59 82.54
  A 1.13 1.08 -27.8 0 0 732.29 82.74
  L 758.63 81.66
  A 0.17 0.17 0.0 0 0 758.75 81.61
  Q 759.55 80.94 761.77 80.94
  Q 795.52 81.00 799.79 80.96
  A 1.93 1.82 31.8 0 0 800.53 80.81
  Q 802.38 79.97 806.00 79.97
  Q 822.78 79.95 884.04 79.92
  A 1.16 1.10 32.6 0 0 884.46 79.84
  Q 886.11 79.14 886.88 79.11
  C 895.32 78.78 904.33 79.05 914.71 78.40
  Q 924.42 77.79 932.93 77.48
  Q 934.13 77.44 935.26 77.41
  Q 947.37 77.07 962.24 75.44
  Q 967.01 74.92 970.73 73.46
  Q 977.19 70.93 989.23 65.00
  Q 998.44 60.47 1010.78 60.15
  Q 1054.37 59.05 1080.91 55.78
  C 1082.83 55.54 1084.71 55.17 1086.13 54.63
  A 4.36 4.34 -75.7 0 0 1087.40 53.87
  C 1092.21 49.78 1094.70 45.35 1102.87 45.94
  Q 1109.35 46.40 1120.66 51.61
  Q 1129.18 55.54 1140.00 56.73
  Q 1147.48 57.54 1160.77 55.74
  Q 1167.96 54.76 1181.43 51.59
  Q 1194.46 48.52 1205.74 47.15
  Q 1209.35 46.72 1220.22 47.06
  Q 1220.60 47.07 1222.58 47.71
  A 5.44 5.15 -34.3 0 0 1224.13 47.96
  Q 1228.70 48.00 1252.84 47.93
  Q 1255.52 47.92 1257.07 48.50
  C 1260.78 49.90 1262.45 54.21 1264.37 56.00
  Q 1269.11 60.40 1274.37 58.59
  Q 1277.17 57.63 1280.16 53.36
  Q 1283.08 49.19 1287.74 51.78
  Q 1304.59 61.12 1323.19 62.21
  Q 1327.61 62.47 1331.25 62.11
  C 1334.57 61.77 1338.04 61.85 1341.91 61.08
  Q 1346.44 60.18 1350.87 59.17
  A 2.80 2.75 49.6 0 1 1352.57 59.32
  C 1360.49 62.64 1364.89 64.83 1372.16 66.90
  C 1381.00 69.42 1389.21 71.32 1397.83 71.94
  C 1402.07 72.25 1405.31 72.97 1409.41 72.93
  C 1417.80 72.84 1425.65 73.77 1433.92 73.90
  Q 1449.57 74.15 1469.66 76.20
  A 1.25 1.25 0.0 0 1 1470.76 77.63
  Q 1468.97 89.05 1468.59 91.35
  Q 1468.07 94.47 1465.68 98.36
  Q 1464.65 100.05 1464.98 102.66
  C 1465.62 107.81 1473.37 111.65 1477.97 112.87
  A 1.98 1.95 43.4 0 0 1479.00 112.85
  Q 1481.43 112.10 1482.38 111.10
  Q 1490.17 102.87 1499.28 96.04
  Q 1502.15 93.90 1505.46 93.97
  A 1.95 1.95 0.0 0 1 1507.36 95.95
  Q 1507.27 100.25 1506.13 104.42
  C 1504.89 108.92 1504.61 112.43 1508.50 114.82
  A 1.55 1.52 -33.6 0 0 1509.54 115.02
  C 1511.66 114.70 1512.85 113.02 1512.91 110.74
  C 1513.11 103.56 1513.37 98.61 1512.07 94.49
  A 1.13 1.08 -55.0 0 1 1512.02 94.16
  L 1511.91 83.76
  A 2.72 2.62 36.4 0 0 1511.76 82.88
  L 1511.10 80.94
  A 0.70 0.69 80.3 0 1 1511.75 80.02
  Z
  M 182.6484 88.0505
  A 9.40 7.30 -89.4 0 0 175.2504 97.3736
  A 9.40 7.30 -89.4 0 0 182.4516 106.8495
  A 9.40 7.30 -89.4 0 0 189.8496 97.5264
  A 9.40 7.30 -89.4 0 0 182.6484 88.0505
  Z
  M 1349.86 139.95
  A 1.66 1.66 0.0 0 0 1349.91 142.98
  Q 1353.06 144.33 1357.83 144.98
  Q 1367.57 146.31 1375.57 146.72
  Q 1390.63 147.49 1414.25 146.53
  Q 1422.51 146.20 1438.68 143.35
  A 2.58 2.57 53.7 0 1 1440.28 143.60
  Q 1442.47 144.74 1447.28 147.76
  C 1450.37 149.71 1453.17 150.81 1456.49 151.76
  A 2.88 2.88 0.0 0 0 1459.06 151.27
  Q 1463.04 148.21 1461.40 143.89
  C 1459.76 139.58 1455.97 139.17 1451.79 138.75
  Q 1449.11 138.48 1444.75 135.75
  Q 1439.27 132.31 1434.87 127.36
  A 4.13 4.10 68.8 0 0 1431.78 125.98
  Q 1418.78 126.04 1405.46 129.14
  C 1399.78 130.47 1392.26 132.74 1385.53 133.64
  C 1379.66 134.42 1369.28 135.50 1361.55 137.15
  C 1355.96 138.34 1352.23 138.82 1349.86 139.95
  Z
  M 194.0708 149.7993
  A 7.67 7.67 0.0 0 0 186.3607 142.1695
  L 147.9413 142.3707
  A 7.67 7.67 0.0 0 0 140.3115 150.0808
  L 140.3292 153.4607
  A 7.67 7.67 0.0 0 0 148.0393 161.0905
  L 186.4587 160.8893
  A 7.67 7.67 0.0 0 0 194.0885 153.1792
  L 194.0708 149.7993
  Z
  M 1101.8894 202.5616
  A 6.37 5.84 -82.7 0 0 1095.2873 208.1379
  A 6.37 5.84 -82.7 0 0 1100.2706 215.1984
  A 6.37 5.84 -82.7 0 0 1106.8727 209.6221
  A 6.37 5.84 -82.7 0 0 1101.8894 202.5616
  Z"
/>
<ellipse fill="#151515" cx="0.00" cy="0.00" transform="translate(363.15,49.45) rotate(-14.0)" rx="6.13" ry="4.12"/>
<path fill="#151515" d="
  M 1474.19 167.48
  C 1476.58 163.01 1481.87 162.43 1486.47 163.05
  A 0.43 0.43 0.0 0 1 1486.57 163.88
  L 1484.02 164.86
  A 0.47 0.27 14.5 0 1 1483.88 164.90
  Q 1480.16 165.37 1474.75 168.06
  A 0.42 0.42 0.0 0 1 1474.19 167.48
  Z"
/>
<path fill="#151515" d="
  M 1561.08 241.49
  Q 1562.12 239.65 1564.13 239.93
  A 0.63 0.63 0.0 0 0 1564.85 239.34
  Q 1564.94 237.92 1566.53 236.73
  A 0.99 0.98 -17.1 0 0 1566.93 235.98
  L 1567.01 234.00
  A 1.21 1.18 69.5 0 1 1567.37 233.19
  Q 1569.47 231.18 1570.11 227.76
  A 1.31 1.30 76.1 0 1 1570.57 226.99
  C 1572.19 225.67 1571.87 223.80 1572.62 222.06
  Q 1573.56 219.87 1574.09 218.48
  A 0.85 0.83 9.9 0 1 1574.88 217.94
  Q 1575.94 217.94 1576.84 218.66
  A 1.37 1.29 -24.2 0 0 1577.68 218.95
  L 1578.31 218.95
  A 0.61 0.59 81.4 0 1 1578.88 219.38
  Q 1579.14 220.25 1580.11 220.01
  A 2.39 2.12 -12.3 0 0 1581.93 217.52
  Q 1581.80 216.75 1581.96 215.56
  A 0.70 0.70 0.0 0 1 1582.65 214.95
  Q 1589.47 214.88 1590.99 214.96
  A 2.43 2.04 83.4 0 1 1592.95 216.81
  Q 1593.29 218.24 1595.32 219.76
  A 1.40 1.39 -30.4 0 0 1596.38 220.03
  Q 1597.74 219.82 1599.89 219.99
  A 2.17 1.75 9.2 0 1 1601.93 222.26
  Q 1601.44 223.98 1599.49 224.09
  A 0.53 0.52 -1.8 0 0 1598.99 224.61
  L 1598.99 225.50
  A 0.51 0.51 0.0 0 0 1599.62 225.99
  Q 1601.90 225.48 1602.89 227.48
  Q 1603.43 228.58 1602.52 229.03
  A 0.86 0.84 77.4 0 0 1602.04 229.80
  L 1602.04 231.51
  A 0.38 0.38 0.0 0 0 1602.38 231.89
  Q 1605.54 232.25 1605.03 235.36
  A 0.51 0.51 0.0 0 0 1605.53 235.95
  L 1607.10 235.95
  A 1.74 1.74 0.0 0 1 1608.47 238.75
  L 1607.03 240.61
  A 0.23 0.22 18.7 0 0 1607.21 240.97
  L 1610.33 240.97
  A 0.68 0.67 76.2 0 1 1610.93 241.34
  Q 1611.46 242.38 1613.36 241.86
  A 0.56 0.55 82.5 0 1 1614.06 242.40
  L 1614.06 244.36
  A 0.69 0.69 0.0 0 1 1613.62 245.00
  Q 1612.21 245.55 1611.95 246.77
  A 1.05 1.04 -61.7 0 0 1612.23 247.73
  L 1613.84 249.34
  A 0.45 0.45 0.0 0 1 1613.41 250.09
  Q 1610.68 249.41 1609.86 252.13
  Q 1609.71 252.61 1609.30 252.93
  A 0.88 0.88 0.0 0 0 1608.96 253.56
  Q 1608.83 255.04 1610.36 255.80
  A 1.43 1.38 57.4 0 0 1610.99 255.95
  L 1616.37 255.95
  A 0.59 0.58 2.1 0 0 1616.96 255.41
  Q 1617.19 252.38 1616.43 251.47
  A 0.32 0.32 0.0 0 1 1616.67 250.95
  L 1618.53 250.95
  A 0.54 0.54 0.0 0 1 1619.06 251.59
  Q 1618.60 253.87 1620.54 255.01
  A 0.93 0.93 0.0 0 1 1621.00 255.81
  L 1621.00 258.07
  A 1.28 1.28 0.0 0 0 1621.35 258.95
  Q 1622.33 259.96 1623.30 260.01
  A 0.81 0.81 0.0 0 1 1624.08 260.82
  L 1624.08 262.40
  A 0.60 0.59 90.0 0 0 1624.67 263.00
  L 1625.55 263.00
  A 0.60 0.60 0.0 0 1 1626.12 263.80
  Q 1625.49 265.61 1627.30 266.79
  A 0.40 0.39 23.6 0 0 1627.90 266.56
  Q 1628.13 265.68 1630.48 265.97
  A 0.56 0.56 0.0 0 1 1630.97 266.59
  Q 1630.86 267.71 1632.34 268.87
  A 1.54 1.54 0.0 0 1 1632.92 269.94
  Q 1633.13 272.43 1635.28 273.56
  Q 1637.39 274.67 1637.63 274.88
  A 1.17 1.17 0.0 0 1 1638.02 275.73
  Q 1638.05 277.15 1638.07 279.98
  A 2.05 1.97 84.8 0 0 1640.39 281.99
  Q 1641.83 281.73 1643.40 282.75
  A 1.38 1.35 60.9 0 0 1644.14 282.97
  L 1647.00 282.97
  A 1.04 1.02 -29.5 0 1 1647.52 283.11
  Q 1650.25 284.74 1649.66 286.76
  C 1648.93 289.28 1648.71 290.68 1650.64 292.13
  A 1.16 1.15 -43.0 0 1 1650.57 294.02
  Q 1642.74 299.10 1638.54 302.04
  Q 1634.18 305.09 1637.24 309.31
  A 3.75 3.65 -89.2 0 0 1637.94 310.05
  Q 1638.42 310.43 1641.73 312.67
  C 1647.47 316.56 1652.84 315.05 1659.93 312.82
  Q 1667.68 310.39 1675.26 311.02
  Q 1678.40 311.27 1680.76 314.24
  A 1.45 1.44 26.4 0 1 1681.06 315.12
  L 1681.06 326.52
  A 0.90 0.88 78.5 0 1 1680.53 327.34
  L 1677.75 328.58
  A 1.30 1.30 0.0 0 0 1677.87 331.00
  Q 1678.06 331.06 1679.15 331.06
  A 1.49 1.42 14.8 0 1 1680.48 333.23
  Q 1680.26 333.60 1679.90 334.37
  A 2.55 2.48 87.2 0 1 1679.00 335.39
  Q 1667.38 342.74 1660.69 351.19
  Q 1659.16 353.12 1658.00 356.91
  C 1657.47 358.63 1656.61 359.26 1654.96 359.08
  A 1.66 1.43 88.2 0 0 1653.42 360.99
  Q 1653.43 361.02 1653.66 361.24
  A 0.98 0.98 0.0 0 1 1653.97 361.93
  Q 1654.02 364.95 1656.94 365.04
  A 1.54 1.46 63.2 0 1 1657.83 365.36
  C 1659.24 366.47 1658.75 367.75 1659.61 369.02
  Q 1664.84 376.68 1673.20 382.09
  C 1677.06 384.59 1679.24 385.23 1680.83 388.35
  A 1.42 1.41 -44.8 0 1 1680.82 389.65
  Q 1679.40 392.31 1678.47 393.03
  Q 1673.99 396.51 1670.81 399.62
  A 5.50 4.88 -80.4 0 1 1670.04 400.24
  C 1664.56 403.93 1659.72 409.61 1658.24 416.28
  A 3.11 3.10 48.5 0 0 1658.18 417.27
  C 1658.87 423.46 1662.56 426.60 1667.53 429.67
  Q 1670.60 431.57 1670.94 432.60
  C 1671.69 434.93 1670.62 436.04 1669.75 437.99
  Q 1663.52 452.04 1667.74 467.01
  Q 1667.91 467.61 1671.86 481.35
  C 1674.66 491.09 1674.16 501.64 1674.06 513.24
  Q 1674.04 515.41 1674.87 518.12
  Q 1676.79 524.44 1683.45 522.61
  Q 1687.96 521.37 1692.05 519.51
  Q 1693.69 518.76 1696.09 518.85
  Q 1702.02 519.07 1700.76 524.73
  C 1700.32 526.73 1697.99 531.85 1699.80 534.17
  C 1703.01 538.27 1704.72 537.54 1708.30 538.65
  A 4.19 4.11 -37.1 0 0 1709.78 538.84
  C 1713.96 538.63 1721.76 539.62 1722.84 544.84
  A 1.18 1.15 -41.3 0 1 1722.79 545.49
  L 1719.38 554.36
  A 0.91 0.89 85.2 0 1 1719.01 554.81
  Q 1712.65 558.94 1705.78 555.48
  Q 1692.30 548.67 1692.02 548.52
  Q 1687.24 545.87 1683.83 545.94
  Q 1678.61 546.03 1675.93 548.86
  Q 1672.40 552.59 1675.85 556.65
  Q 1692.33 576.07 1696.32 581.41
  Q 1696.60 581.77 1697.65 583.44
  A 2.42 2.42 0.0 0 1 1697.19 586.55
  Q 1693.83 589.46 1688.95 592.15
  Q 1684.39 594.66 1681.49 601.15
  A 4.03 4.01 55.4 0 0 1681.16 602.97
  Q 1681.29 605.28 1680.54 611.02
  Q 1675.38 650.47 1670.62 676.22
  Q 1669.13 684.32 1668.70 687.71
  Q 1667.92 693.80 1668.44 699.29
  Q 1669.56 711.33 1675.17 722.82
  Q 1676.37 725.26 1685.12 739.63
  Q 1687.61 743.72 1686.94 749.12
  A 1.51 1.49 67.8 0 1 1686.63 749.87
  Q 1684.08 753.07 1680.46 753.02
  C 1676.53 752.97 1672.14 754.53 1669.36 756.31
  Q 1667.21 757.68 1666.12 760.73
  A 2.18 2.17 -41.1 0 0 1666.04 761.85
  Q 1667.01 766.97 1671.37 770.91
  C 1673.12 772.49 1674.02 772.31 1675.81 770.80
  Q 1678.25 768.76 1681.24 768.89
  A 0.82 0.81 78.7 0 1 1681.95 769.37
  C 1683.38 772.51 1682.94 775.92 1683.38 779.68
  Q 1685.81 800.42 1687.66 819.31
  Q 1688.06 823.36 1688.65 826.07
  A 2.01 1.95 48.7 0 1 1688.60 827.05
  C 1687.31 831.15 1682.55 831.99 1678.70 833.31
  A 10.58 10.51 -75.5 0 0 1675.01 835.50
  Q 1667.87 841.99 1666.11 851.85
  Q 1664.58 860.41 1665.00 870.00
  C 1665.13 872.93 1665.64 874.23 1668.14 876.12
  Q 1676.72 882.60 1681.77 888.30
  Q 1693.85 901.93 1689.57 919.39
  Q 1687.97 925.93 1682.52 935.11
  A 3.00 2.79 -25.5 0 0 1682.16 936.02
  Q 1681.53 938.83 1683.16 941.35
  Q 1684.21 942.96 1683.97 944.47
  A 0.66 0.66 0.0 0 1 1683.40 945.02
  Q 1681.16 945.30 1679.73 944.76
  Q 1677.70 943.98 1676.12 944.11
  Q 1668.67 944.73 1666.31 952.30
  Q 1663.11 962.56 1662.92 972.25
  Q 1662.64 986.28 1669.54 997.54
  Q 1673.99 1004.82 1676.58 1011.47
  C 1678.90 1017.40 1674.29 1025.22 1670.19 1029.54
  A 7.00 6.99 73.0 0 0 1668.43 1032.85
  Q 1664.33 1051.63 1661.09 1071.76
  C 1660.77 1073.73 1661.40 1074.64 1662.72 1076.16
  Q 1668.57 1082.85 1670.03 1087.00
  Q 1673.90 1098.03 1666.23 1106.23
  Q 1662.61 1110.09 1658.03 1114.52
  Q 1657.29 1115.23 1656.37 1117.49
  A 1.34 1.28 49.6 0 0 1656.32 1118.34
  L 1662.23 1139.85
  A 3.85 3.83 23.1 0 0 1662.57 1140.69
  C 1664.57 1144.30 1670.35 1145.96 1674.02 1147.26
  C 1682.33 1150.20 1688.07 1157.80 1689.32 1166.33
  Q 1689.72 1169.02 1689.35 1172.78
  C 1689.09 1175.41 1689.08 1178.45 1688.34 1181.36
  Q 1686.41 1188.95 1682.13 1196.96
  Q 1681.23 1198.64 1680.00 1199.12
  Q 1677.61 1200.06 1676.97 1200.02
  Q 1670.15 1199.68 1662.91 1201.50
  Q 1657.81 1202.78 1656.43 1207.78
  C 1655.18 1212.29 1658.50 1215.59 1662.88 1214.89
  Q 1665.90 1214.41 1670.50 1212.94
  C 1673.45 1212.00 1675.21 1211.84 1678.01 1212.02
  A 2.15 2.15 0.0 0 1 1679.99 1213.81
  Q 1680.38 1216.23 1679.49 1218.75
  Q 1675.59 1229.80 1669.20 1243.21
  C 1668.19 1245.33 1666.83 1248.99 1669.58 1250.34
  Q 1671.02 1251.05 1672.58 1251.75
  A 2.09 2.04 49.2 0 0 1673.97 1251.87
  C 1678.40 1250.72 1680.55 1246.64 1683.06 1242.45
  Q 1684.11 1240.70 1686.80 1241.03
  C 1691.62 1241.61 1697.17 1250.48 1698.80 1254.66
  A 3.88 3.79 35.2 0 1 1699.05 1256.02
  L 1699.05 1286.18
  A 1.19 1.16 -22.2 0 1 1698.68 1287.03
  Q 1697.95 1287.72 1697.97 1288.53
  Q 1698.50 1311.07 1696.80 1334.83
  A 4.62 4.59 75.2 0 1 1694.79 1338.32
  L 1687.31 1343.39
  A 2.69 2.61 -1.3 0 0 1686.61 1344.10
  L 1683.74 1348.42
  A 3.52 3.51 53.6 0 0 1683.30 1351.37
  Q 1684.97 1356.96 1691.23 1360.40
  C 1695.06 1362.51 1694.11 1365.77 1692.20 1368.70
  Q 1688.31 1374.69 1684.57 1383.83
  C 1679.42 1396.44 1679.04 1410.63 1681.05 1424.03
  C 1681.60 1427.70 1682.34 1429.37 1683.32 1432.96
  C 1684.00 1435.46 1684.01 1436.05 1682.68 1438.38
  Q 1672.55 1456.11 1669.18 1475.70
  Q 1665.55 1496.86 1665.98 1519.50
  Q 1666.00 1520.28 1665.35 1522.78
  A 5.99 5.80 -38.4 0 0 1665.15 1524.30
  Q 1665.13 1528.16 1665.04 1535.42
  C 1664.95 1543.50 1662.96 1553.61 1663.01 1560.47
  A 0.56 0.56 0.0 0 1 1662.45 1561.03
  Q 1658.11 1561.08 1656.74 1560.94
  Q 1654.00 1560.66 1640.55 1558.78
  A 0.93 0.67 54.2 0 1 1640.31 1558.70
  L 1633.73 1555.28
  A 2.04 1.98 58.1 0 0 1632.80 1555.05
  L 1629.28 1555.05
  A 2.26 2.22 30.5 0 0 1628.23 1555.31
  C 1622.98 1558.10 1620.83 1562.56 1618.51 1567.92
  C 1617.51 1570.22 1617.95 1571.44 1619.64 1573.11
  Q 1626.29 1579.70 1635.91 1589.34
  C 1638.48 1591.92 1641.82 1595.56 1641.04 1599.12
  A 0.90 0.89 3.9 0 1 1640.23 1599.82
  Q 1633.89 1600.35 1628.90 1599.24
  C 1623.01 1597.94 1618.83 1597.57 1615.33 1602.21
  A 1.16 1.15 58.3 0 0 1615.12 1603.13
  C 1615.79 1606.72 1624.21 1606.78 1626.97 1606.49
  C 1632.74 1605.88 1636.34 1606.33 1641.63 1605.51
  Q 1647.31 1604.64 1654.76 1605.03
  Q 1656.31 1605.11 1657.25 1604.26
  A 0.45 0.45 0.0 0 1 1658.00 1604.63
  Q 1657.85 1606.30 1658.38 1607.53
  C 1659.09 1609.15 1659.04 1609.85 1658.69 1611.29
  A 2.24 2.14 46.3 0 0 1658.69 1612.26
  C 1659.52 1615.77 1658.32 1619.01 1658.14 1622.32
  Q 1657.26 1638.38 1651.60 1653.82
  A 1.75 1.74 -82.5 0 1 1650.12 1654.96
  C 1640.41 1655.88 1626.98 1654.10 1620.58 1645.99
  Q 1619.89 1645.11 1616.64 1637.86
  A 2.42 2.25 14.4 0 0 1616.23 1637.22
  C 1612.53 1633.08 1608.32 1635.74 1603.34 1637.69
  A 5.06 4.84 29.2 0 1 1602.22 1637.98
  Q 1600.61 1638.21 1593.16 1637.62
  Q 1587.87 1637.21 1585.78 1642.43
  A 2.59 2.53 52.0 0 0 1585.63 1643.78
  Q 1586.41 1648.78 1587.84 1651.91
  Q 1593.98 1665.35 1604.25 1677.75
  Q 1605.47 1679.22 1607.72 1680.03
  C 1612.48 1681.76 1618.22 1683.20 1623.44 1685.71
  C 1628.47 1688.14 1632.95 1690.31 1636.77 1694.12
  A 0.46 0.45 42.5 0 1 1636.80 1694.72
  Q 1630.51 1702.47 1621.80 1706.02
  Q 1619.52 1706.95 1611.43 1708.97
  A 2.54 2.48 37.6 0 1 1610.84 1709.04
  L 1604.56 1709.04
  A 1.36 1.33 -30.7 0 1 1603.94 1708.89
  L 1577.67 1695.23
  A 1.34 1.34 0.0 0 1 1577.58 1692.91
  C 1582.24 1690.02 1586.02 1686.19 1584.56 1680.24
  C 1584.22 1678.83 1582.89 1675.99 1581.67 1674.44
  Q 1576.06 1667.30 1573.06 1664.86
  C 1560.67 1654.79 1551.62 1648.02 1544.13 1636.09
  C 1540.11 1629.68 1536.66 1625.34 1532.54 1620.53
  A 1.35 1.35 0.0 0 1 1532.83 1618.52
  C 1535.18 1617.00 1542.81 1619.00 1546.08 1620.31
  Q 1550.17 1621.94 1554.40 1622.89
  C 1557.61 1623.60 1559.61 1620.49 1558.36 1617.67
  C 1556.64 1613.80 1552.53 1608.95 1547.63 1607.78
  A 1.10 1.10 0.0 0 1 1546.92 1606.19
  Q 1551.77 1597.15 1555.45 1584.86
  A 0.77 0.77 0.0 0 1 1556.93 1584.88
  L 1568.76 1629.50
  A 1.52 1.50 -33.8 0 1 1568.49 1630.83
  L 1563.46 1637.32
  A 1.87 1.80 73.6 0 0 1563.21 1637.80
  C 1561.22 1643.73 1561.11 1654.00 1566.51 1658.19
  Q 1572.19 1662.60 1577.36 1657.39
  C 1581.30 1653.41 1576.07 1649.12 1577.37 1644.18
  Q 1578.60 1639.51 1581.05 1636.52
  A 4.40 4.28 0.7 0 1 1581.85 1635.76
  C 1585.47 1633.13 1589.25 1631.20 1591.30 1627.97
  A 2.77 2.62 68.5 0 0 1591.65 1627.10
  Q 1592.78 1621.83 1594.15 1615.25
  C 1596.00 1606.39 1596.87 1595.03 1595.12 1586.61
  Q 1592.52 1574.14 1582.42 1565.09
  Q 1580.93 1563.75 1570.66 1556.23
  C 1566.40 1553.10 1562.11 1548.98 1559.58 1546.00
  C 1551.45 1536.42 1542.32 1528.59 1532.90 1520.80
  A 5.28 5.23 14.9 0 1 1531.07 1517.68
  L 1530.13 1512.42
  Q 1530.13 1512.37 1530.13 1512.32
  Q 1530.77 1501.93 1532.88 1495.63
  Q 1534.43 1491.02 1538.70 1479.20
  Q 1539.63 1476.64 1540.08 1473.81
  Q 1542.66 1457.51 1541.89 1441.01
  Q 1541.78 1438.80 1540.38 1437.17
  A 1.17 1.11 81.5 0 0 1539.97 1436.85
  L 1530.00 1432.08
  A 1.53 1.49 -2.3 0 1 1529.32 1431.47
  Q 1527.91 1429.14 1527.75 1428.73
  Q 1522.12 1413.94 1519.60 1407.88
  Q 1513.03 1392.05 1504.74 1379.27
  C 1498.61 1369.83 1486.98 1358.87 1480.43 1350.08
  C 1475.48 1343.44 1471.03 1334.43 1470.93 1326.16
  C 1470.89 1322.69 1471.19 1320.19 1470.46 1317.94
  Q 1469.88 1316.18 1471.12 1314.57
  Q 1474.65 1310.03 1480.46 1309.54
  Q 1482.27 1309.39 1485.00 1310.01
  C 1490.89 1311.35 1496.28 1311.68 1500.44 1306.97
  C 1502.44 1304.70 1499.56 1301.55 1497.43 1300.32
  Q 1495.10 1298.96 1491.12 1297.13
  A 1.96 1.95 -6.2 0 1 1490.33 1296.50
  Q 1488.58 1294.18 1488.91 1292.48
  A 3.14 2.59 -3.0 0 1 1491.24 1290.34
  Q 1494.29 1289.64 1497.65 1290.38
  Q 1501.80 1291.30 1507.01 1292.01
  Q 1508.43 1292.21 1509.68 1292.61
  Q 1512.08 1293.36 1514.46 1291.03
  A 1.90 1.89 -33.8 0 0 1514.88 1288.93
  C 1514.06 1287.00 1513.20 1285.19 1511.93 1283.40
  Q 1497.27 1262.74 1495.22 1236.99
  Q 1494.76 1231.10 1495.02 1210.57
  A 5.42 5.29 58.4 0 1 1495.52 1208.35
  Q 1496.28 1206.69 1495.91 1204.08
  A 1.07 1.06 66.7 0 1 1496.30 1203.09
  Q 1499.52 1200.49 1502.70 1203.66
  A 1.20 1.18 22.8 0 1 1503.05 1204.50
  C 1502.98 1219.97 1503.08 1232.00 1505.93 1245.77
  Q 1506.75 1249.70 1509.91 1252.47
  A 2.35 2.23 49.6 0 0 1512.62 1252.76
  C 1513.99 1251.92 1515.18 1250.04 1515.59 1248.38
  C 1517.31 1241.43 1519.28 1236.24 1520.10 1229.26
  Q 1521.59 1216.71 1520.52 1202.66
  Q 1520.01 1195.88 1517.48 1185.61
  Q 1511.76 1162.45 1508.48 1135.25
  Q 1507.89 1130.37 1507.87 1128.23
  Q 1507.84 1125.04 1507.49 1123.54
  C 1506.52 1119.43 1506.96 1115.45 1506.93 1110.22
  A 0.10 0.08 38.0 0 0 1506.92 1110.18
  L 1506.23 1106.82
  A 4.15 3.45 -55.7 0 1 1506.16 1106.08
  C 1506.13 1098.32 1505.93 1092.82 1504.63 1087.02
  A 8.28 8.25 -70.2 0 0 1503.09 1083.73
  Q 1499.32 1078.85 1496.89 1076.38
  Q 1495.51 1074.97 1495.98 1073.00
  C 1496.89 1069.18 1498.30 1064.26 1500.06 1059.52
  Q 1504.71 1046.99 1506.50 1037.03
  Q 1507.69 1030.45 1506.30 1022.36
  A 8.13 7.78 -49.5 0 1 1506.20 1020.58
  Q 1506.38 1017.83 1505.24 1000.25
  Q 1504.94 995.67 1504.89 978.25
  A 10.45 10.35 -50.7 0 0 1504.70 976.27
  Q 1504.21 973.79 1504.19 973.01
  Q 1503.90 963.05 1503.95 950.08
  A 5.83 5.13 -53.8 0 0 1503.86 949.08
  C 1503.51 947.14 1503.11 946.15 1503.08 943.95
  Q 1502.93 934.77 1502.97 924.14
  A 4.46 4.43 32.2 0 0 1502.50 922.11
  Q 1502.48 922.06 1502.35 921.84
  A 3.12 3.07 -60.5 0 1 1501.93 920.28
  L 1502.00 880.22
  A 2.09 2.06 37.4 0 0 1501.92 879.65
  L 1501.04 876.52
  A 1.56 1.30 -58.3 0 1 1500.98 876.10
  Q 1500.93 824.06 1500.99 772.00
  Q 1500.99 771.23 1501.64 769.28
  A 7.14 7.13 53.9 0 0 1502.00 766.98
  Q 1501.88 744.71 1502.04 738.25
  Q 1502.07 737.03 1502.60 735.53
  A 5.18 5.08 -35.8 0 0 1502.91 733.72
  C 1502.87 726.93 1502.57 720.06 1503.81 714.01
  A 6.17 6.01 -39.8 0 0 1503.94 712.76
  C 1503.91 702.46 1503.56 694.49 1504.68 688.01
  A 14.84 14.75 49.8 0 0 1504.89 685.41
  Q 1504.68 669.71 1505.58 656.34
  C 1506.03 649.77 1505.97 644.24 1506.20 637.00
  Q 1506.23 636.18 1506.77 634.30
  A 5.69 5.34 54.5 0 0 1506.97 632.82
  L 1506.97 606.94
  A 0.88 0.88 0.0 0 0 1506.09 606.06
  L 1497.29 606.06
  A 1.79 1.73 59.5 0 1 1496.39 605.81
  Q 1493.27 603.96 1492.85 600.81
  A 1.89 1.86 -30.1 0 1 1493.23 599.42
  Q 1494.82 597.37 1496.12 596.58
  Q 1501.90 593.07 1506.67 589.99
  A 2.88 2.88 0.0 0 0 1507.98 587.47
  Q 1507.79 582.41 1508.32 578.89
  Q 1509.05 573.98 1508.91 570.20
  Q 1508.42 557.41 1507.55 553.96
  C 1504.38 541.46 1500.47 529.31 1498.89 516.66
  A 3.75 3.75 0.0 0 1 1499.97 513.53
  C 1510.82 502.71 1517.99 488.33 1512.47 473.25
  Q 1509.58 465.33 1502.39 456.66
  A 1.64 1.63 26.8 0 1 1502.01 455.51
  C 1502.26 451.37 1501.03 447.85 1500.96 443.63
  Q 1500.81 434.03 1500.96 425.76
  Q 1501.00 423.32 1500.30 421.66
  A 2.00 1.83 -59.6 0 1 1500.15 420.96
  L 1499.93 410.35
  A 1.73 1.68 -27.6 0 1 1500.29 409.25
  Q 1500.76 408.67 1504.83 404.57
  Q 1506.22 403.17 1507.87 398.05
  A 2.24 2.13 49.6 0 0 1507.93 396.96
  Q 1506.93 391.71 1506.83 391.47
  C 1502.18 378.97 1497.53 369.76 1504.13 357.64
  A 7.21 6.83 68.7 0 0 1504.74 356.14
  C 1506.47 349.80 1506.54 342.37 1507.49 335.82
  Q 1508.20 330.91 1507.90 327.42
  A 1.57 1.55 66.3 0 1 1508.38 326.16
  Q 1509.87 324.74 1510.15 323.78
  A 1.00 0.99 1.0 0 1 1510.86 323.10
  Q 1513.60 322.39 1514.18 320.72
  A 0.90 0.90 0.0 0 1 1514.96 320.11
  Q 1516.24 320.01 1518.85 318.56
  A 1.63 1.61 -5.4 0 0 1519.58 317.69
  Q 1520.28 315.65 1522.22 314.92
  A 1.17 1.17 0.0 0 0 1522.93 314.17
  C 1523.40 312.72 1525.63 309.76 1527.46 311.77
  A 0.56 0.56 0.0 0 0 1528.39 311.18
  L 1527.14 308.12
  A 0.96 0.95 60.3 0 1 1527.44 307.00
  C 1529.51 305.44 1531.19 306.56 1532.14 303.64
  A 1.71 1.67 80.7 0 1 1532.69 302.85
  Q 1533.73 302.06 1534.05 301.29
  A 0.84 0.83 -56.2 0 0 1533.87 300.36
  L 1532.42 298.91
  A 1.48 1.44 22.0 0 1 1531.99 297.93
  Q 1531.91 296.19 1531.89 294.82
  A 1.60 1.48 9.2 0 1 1533.98 293.44
  Q 1534.18 293.50 1534.48 294.13
  A 0.76 0.75 -30.4 0 1 1534.23 295.07
  Q 1533.90 295.31 1533.99 296.25
  A 0.82 0.81 -82.4 0 0 1534.50 296.93
  L 1536.47 297.68
  A 0.35 0.34 11.8 0 0 1536.94 297.38
  L 1537.04 294.98
  A 1.11 1.09 -22.1 0 1 1537.35 294.27
  L 1538.51 293.11
  A 0.73 0.72 -45.3 0 0 1538.51 292.08
  L 1536.45 290.01
  A 1.38 1.37 -43.5 0 1 1536.51 288.02
  Q 1537.85 286.83 1538.00 285.11
  A 1.66 1.62 -23.2 0 1 1538.39 284.17
  Q 1540.35 281.88 1541.06 279.51
  A 0.32 0.32 0.0 0 1 1541.62 279.40
  Q 1542.08 279.95 1542.88 280.11
  A 1.14 1.14 0.0 0 0 1544.02 279.69
  L 1544.87 278.59
  A 0.33 0.33 0.0 0 0 1544.56 278.06
  Q 1543.31 278.23 1542.32 276.80
  A 1.04 1.02 -46.0 0 1 1542.31 275.64
  L 1544.47 272.35
  A 1.14 1.13 -84.0 0 1 1544.97 271.94
  Q 1545.96 271.55 1545.95 270.20
  A 1.66 1.63 67.8 0 1 1546.44 269.00
  L 1547.48 267.96
  A 0.46 0.46 0.0 0 1 1548.27 268.31
  L 1547.51 286.15
  A 1.52 1.41 42.7 0 0 1547.54 286.53
  Q 1548.03 288.58 1548.15 293.54
  A 0.76 0.75 -55.9 0 0 1548.20 293.81
  L 1549.33 297.07
  A 2.25 2.23 40.5 0 1 1549.42 298.15
  Q 1549.11 300.24 1550.31 303.35
  A 2.06 2.05 -82.1 0 0 1550.98 304.24
  L 1555.34 307.62
  A 2.07 2.03 66.6 0 0 1556.40 308.05
  Q 1561.87 308.68 1565.15 307.32
  Q 1568.31 306.01 1569.53 305.74
  A 5.45 5.43 -73.3 0 0 1572.30 304.24
  L 1576.90 299.61
  A 0.92 0.91 21.9 0 0 1576.23 298.05
  C 1572.87 298.09 1573.89 292.87 1574.48 290.38
  A 1.92 1.89 -44.7 0 0 1574.49 289.54
  Q 1574.24 288.35 1574.23 288.28
  Q 1574.04 285.33 1573.86 269.75
  Q 1573.85 269.30 1573.32 268.44
  A 0.95 0.94 48.5 0 1 1573.38 267.37
  Q 1574.44 266.01 1573.81 262.68
  A 1.68 1.65 14.8 0 0 1573.22 261.69
  Q 1571.05 259.91 1570.82 258.18
  A 1.19 1.19 0.0 0 0 1570.13 257.26
  Q 1568.36 256.46 1567.22 253.85
  A 1.20 1.20 0.0 0 0 1566.42 253.16
  Q 1565.27 252.84 1563.23 251.15
  A 0.67 0.66 42.5 0 1 1563.18 250.17
  L 1564.88 248.47
  A 0.63 0.50 79.4 0 0 1565.03 248.19
  Q 1565.23 247.25 1564.28 246.82
  A 0.70 0.69 -71.9 0 1 1563.89 246.05
  Q 1564.04 245.25 1564.76 244.78
  A 0.41 0.39 -17.4 0 0 1564.94 244.45
  L 1564.94 242.71
  A 0.63 0.62 90.0 0 0 1564.32 242.08
  L 1561.43 242.08
  A 0.40 0.40 0.0 0 1 1561.08 241.49
  Z
  M 1570.88 234.43
  L 1570.96 233.50
  A 0.70 0.70 0.0 0 1 1571.67 232.86
  Q 1573.59 232.89 1574.00 231.19
  A 1.60 1.30 -18.4 0 0 1571.41 230.21
  Q 1570.81 230.74 1569.63 231.98
  A 0.82 0.82 0.0 0 0 1569.44 232.77
  Q 1569.90 234.35 1570.27 234.68
  A 0.37 0.37 0.0 0 0 1570.88 234.43
  Z
  M 1571.0469 237.3786
  A 3.03 1.26 -32.8 0 0 1567.8174 237.9609
  A 3.03 1.26 -32.8 0 0 1565.9531 240.6614
  A 3.03 1.26 -32.8 0 0 1569.1826 240.0791
  A 3.03 1.26 -32.8 0 0 1571.0469 237.3786
  Z
  M 1580.9910 238.7190
  A 0.64 0.64 0.0 0 0 1580.3600 238.0701
  L 1577.5002 238.0302
  A 0.64 0.64 0.0 0 0 1576.8514 238.6612
  L 1576.8290 240.2610
  A 0.64 0.64 0.0 0 0 1577.4600 240.9099
  L 1580.3198 240.9498
  A 0.64 0.64 0.0 0 0 1580.9686 240.3188
  L 1580.9910 238.7190
  Z
  M 1567.45 247.98
  L 1571.51 247.96
  A 0.52 0.52 0.0 0 0 1572.03 247.43
  L 1572.03 247.24
  A 2.28 2.21 -0.4 0 0 1569.73 245.05
  L 1569.19 245.05
  A 2.28 2.21 -0.4 0 0 1566.93 247.28
  L 1566.93 247.47
  A 0.52 0.52 0.0 0 0 1567.45 247.98
  Z
  M 1594.33 249.99
  Q 1593.27 250.27 1592.81 249.46
  Q 1592.57 249.05 1592.06 248.97
  Q 1591.50 248.89 1591.27 249.32
  Q 1590.96 249.90 1590.30 250.20
  Q 1588.27 251.10 1587.17 252.26
  A 0.81 0.81 0.0 0 0 1587.34 253.51
  L 1590.83 255.62
  A 0.80 0.79 -19.1 0 0 1591.00 255.70
  Q 1594.90 257.00 1596.28 253.87
  Q 1596.60 253.12 1596.01 252.57
  Q 1594.78 251.44 1594.90 250.48
  A 0.45 0.45 0.0 0 0 1594.33 249.99
  Z
  M 1597.49 263.97
  L 1598.45 263.97
  A 0.55 0.55 0.0 0 0 1599.00 263.42
  L 1599.00 261.72
  A 0.65 0.64 6.1 0 0 1598.49 261.09
  Q 1595.57 260.42 1594.19 262.11
  A 0.55 0.55 0.0 0 0 1594.25 262.87
  L 1596.33 264.74
  A 0.34 0.33 -48.0 0 0 1596.81 264.71
  Q 1596.96 264.53 1597.03 264.31
  A 0.48 0.47 8.1 0 1 1597.49 263.97
  Z
  M 1625.1485 271.4536
  A 6.01 3.46 -1.3 0 0 1619.0615 268.1309
  A 6.01 3.46 -1.3 0 0 1613.1315 271.7264
  A 6.01 3.46 -1.3 0 0 1619.2185 275.0491
  A 6.01 3.46 -1.3 0 0 1625.1485 271.4536
  Z
  M 1612.8113 290.6797
  A 10.84 7.29 -179.1 0 0 1623.5355 298.1391
  A 10.84 7.29 -179.1 0 0 1634.4887 291.0203
  A 10.84 7.29 -179.1 0 0 1623.7645 283.5609
  A 10.84 7.29 -179.1 0 0 1612.8113 290.6797
  Z
  M 1540.63 289.86
  Q 1541.08 289.69 1540.93 287.79
  A 0.90 0.90 0.0 0 0 1539.74 287.00
  Q 1539.61 287.05 1539.59 287.06
  Q 1539.57 287.06 1539.44 287.12
  A 0.90 0.90 0.0 0 0 1539.05 288.49
  Q 1540.19 290.02 1540.63 289.86
  Z
  M 1610.54 298.27
  L 1604.37 299.31
  A 0.72 0.72 0.0 0 0 1603.78 300.14
  L 1603.79 300.21
  A 3.91 3.76 80.4 0 0 1608.15 303.44
  L 1608.33 303.41
  A 3.91 3.76 80.4 0 0 1611.39 298.93
  L 1611.37 298.86
  A 0.72 0.72 0.0 0 0 1610.54 298.27
  Z
  M 1576.12 309.02
  L 1572.75 309.25
  A 0.80 0.80 0.0 0 0 1572.00 310.10
  L 1572.04 310.72
  A 2.46 2.40 86.2 0 0 1574.60 313.01
  L 1574.78 313.00
  A 2.46 2.40 86.2 0 0 1577.01 310.39
  L 1576.97 309.77
  A 0.80 0.80 0.0 0 0 1576.12 309.02
  Z
  M 1524.6935 314.6188
  A 1.28 1.17 -132.0 0 0 1524.6805 316.3529
  A 1.28 1.17 -132.0 0 0 1526.4065 316.5212
  A 1.28 1.17 -132.0 0 0 1526.4195 314.7871
  A 1.28 1.17 -132.0 0 0 1524.6935 314.6188
  Z
  M 1606.56 317.12
  L 1605.06 316.98
  A 1.08 1.06 -64.3 0 0 1604.20 317.29
  L 1602.13 319.36
  A 0.90 0.90 0.0 0 0 1602.53 320.87
  Q 1605.13 321.58 1606.04 319.03
  Q 1606.44 317.91 1606.67 317.81
  A 0.36 0.36 0.0 0 0 1606.56 317.12
  Z
  M 1615.92 318.79
  Q 1615.91 318.75 1616.04 317.57
  A 0.53 0.52 -87.0 0 0 1615.52 316.99
  L 1614.44 316.99
  A 0.57 0.56 4.8 0 0 1613.88 317.46
  Q 1613.81 317.93 1613.93 318.16
  A 0.51 0.51 0.0 0 1 1613.11 318.74
  L 1611.70 317.23
  A 0.42 0.42 0.0 0 0 1610.98 317.45
  Q 1610.91 317.97 1611.05 318.37
  A 0.78 0.78 0.0 0 0 1611.89 318.87
  Q 1612.11 318.84 1612.26 318.84
  A 0.77 0.77 0.0 0 1 1613.05 319.61
  L 1613.05 321.27
  A 0.61 0.61 0.0 0 0 1613.70 321.88
  Q 1615.87 321.75 1615.98 323.50
  A 0.53 0.53 0.0 0 1 1615.21 324.00
  L 1611.66 322.16
  A 0.98 0.98 0.0 0 0 1611.19 322.04
  L 1606.88 322.04
  A 1.24 1.22 -63.2 0 0 1606.14 322.29
  Q 1604.60 323.46 1605.09 325.47
  A 1.29 1.26 11.6 0 0 1605.59 326.21
  Q 1607.09 327.27 1609.35 326.93
  A 0.74 0.73 86.0 0 0 1609.98 326.20
  L 1609.98 325.42
  A 0.51 0.50 12.0 0 1 1610.69 324.97
  Q 1613.46 326.19 1613.02 328.63
  A 0.53 0.53 0.0 0 1 1612.50 329.06
  L 1609.48 329.06
  A 0.51 0.50 -86.8 0 0 1608.98 329.51
  Q 1608.75 331.58 1610.08 332.67
  A 0.55 0.55 0.0 0 0 1610.82 332.63
  Q 1612.51 330.88 1614.02 332.61
  A 1.08 1.04 68.6 0 0 1614.81 332.97
  L 1619.38 332.97
  A 0.63 0.63 0.0 0 0 1620.01 332.34
  L 1620.01 330.85
  A 0.82 0.82 0.0 0 0 1619.19 330.03
  L 1617.38 330.03
  A 0.33 0.33 0.0 0 1 1617.05 329.70
  L 1617.05 329.40
  A 0.36 0.35 -3.7 0 1 1617.36 329.05
  C 1618.56 328.91 1619.13 328.87 1620.42 329.78
  Q 1621.13 330.28 1622.01 329.90
  Q 1623.98 329.05 1625.41 328.78
  A 0.75 0.75 0.0 0 0 1625.99 327.87
  Q 1625.62 326.30 1623.78 326.01
  A 1.00 1.00 0.0 0 1 1623.27 324.28
  Q 1625.02 322.72 1625.50 322.08
  A 2.96 2.62 -51.6 0 0 1625.29 318.24
  Q 1624.20 317.33 1622.79 318.61
  A 1.87 1.66 -32.8 0 1 1619.90 318.16
  Q 1619.74 317.72 1619.70 317.69
  A 0.91 0.88 -33.5 0 0 1618.94 317.55
  Q 1617.07 318.03 1616.56 318.85
  A 0.36 0.36 0.0 0 1 1615.92 318.79
  Z
  M 1627.09 324.23
  Q 1626.69 324.67 1627.19 326.64
  A 0.73 0.72 -10.1 0 0 1627.97 327.18
  Q 1628.52 327.12 1629.31 326.25
  Q 1630.10 325.38 1630.11 324.83
  A 0.73 0.72 -85.3 0 0 1629.49 324.10
  Q 1627.49 323.79 1627.09 324.23
  Z
  M 1666.22 327.13
  L 1665.55 325.28
  A 0.42 0.42 0.0 0 0 1665.01 325.03
  L 1664.77 325.12
  A 2.46 1.28 -19.9 0 0 1662.89 327.16
  L 1662.97 327.39
  A 2.46 1.28 -19.9 0 0 1665.72 327.75
  L 1665.97 327.66
  A 0.42 0.42 0.0 0 0 1666.22 327.13
  Z
  M 1575.45 332.51
  C 1575.68 334.31 1576.75 336.40 1579.03 335.92
  Q 1579.73 335.78 1580.02 334.97
  Q 1580.31 334.15 1581.18 333.98
  Q 1581.92 333.83 1583.29 334.88
  Q 1585.17 336.33 1587.04 336.01
  A 1.62 1.48 52.1 0 0 1587.27 333.08
  C 1585.23 331.99 1582.71 332.39 1581.73 329.52
  A 0.89 0.88 -11.6 0 0 1580.81 328.92
  Q 1580.26 328.97 1579.23 330.00
  A 0.57 0.57 0.0 0 0 1579.23 330.81
  L 1580.82 332.40
  A 0.43 0.43 0.0 0 1 1580.60 333.13
  Q 1579.18 333.42 1576.24 331.95
  A 0.55 0.55 0.0 0 0 1575.45 332.51
  Z
  M 1669.38 329.85
  L 1660.53 331.00
  A 0.21 0.21 0.0 0 0 1660.35 331.23
  L 1660.42 331.77
  A 4.75 4.63 82.6 0 0 1665.62 335.88
  L 1665.70 335.87
  A 4.75 4.63 82.6 0 0 1669.68 330.57
  L 1669.61 330.03
  A 0.21 0.21 0.0 0 0 1669.38 329.85
  Z
  M 1561.17 333.92
  L 1562.40 334.07
  A 0.41 0.41 0.0 0 0 1562.86 333.72
  L 1563.00 332.57
  A 2.05 0.86 -82.8 0 0 1562.41 330.43
  L 1562.07 330.38
  A 2.05 0.86 -82.8 0 0 1560.96 332.31
  L 1560.81 333.46
  A 0.41 0.41 0.0 0 0 1561.17 333.92
  Z
  M 1550.82 337.10
  L 1553.77 336.65
  A 0.53 0.53 0.0 0 0 1554.21 336.05
  L 1554.12 335.41
  A 1.91 1.70 -8.6 0 0 1551.97 334.01
  L 1551.76 334.04
  A 1.91 1.70 -8.6 0 0 1550.12 336.01
  L 1550.22 336.65
  A 0.53 0.53 0.0 0 0 1550.82 337.10
  Z
  M 1556.5543 334.8045
  A 3.32 1.41 -143.7 0 0 1558.3953 337.9064
  A 3.32 1.41 -143.7 0 0 1561.9057 338.7355
  A 3.32 1.41 -143.7 0 0 1560.0647 335.6336
  A 3.32 1.41 -143.7 0 0 1556.5543 334.8045
  Z
  M 1596.68 336.69
  Q 1596.43 336.94 1596.39 337.04
  A 1.23 1.23 0.0 0 0 1597.95 338.67
  Q 1598.12 338.60 1598.36 338.36
  Q 1598.60 338.12 1598.67 337.95
  A 1.23 1.23 0.0 0 0 1597.04 336.39
  Q 1596.94 336.43 1596.68 336.69
  Z
  M 1581.27 340.02
  Q 1583.09 338.54 1584.21 338.91
  A 0.55 0.55 0.0 0 0 1584.93 338.33
  Q 1584.87 337.68 1584.12 337.28
  Q 1583.62 337.02 1581.04 337.02
  A 0.93 0.92 -88.4 0 0 1580.11 337.91
  L 1580.04 339.40
  A 0.76 0.75 71.7 0 0 1581.27 340.02
  Z
  M 1589.18 337.19
  Q 1589.01 337.36 1589.07 339.41
  A 0.35 0.35 0.0 0 0 1589.60 339.70
  Q 1590.19 339.34 1590.76 338.77
  Q 1591.33 338.19 1591.68 337.61
  A 0.35 0.35 0.0 0 0 1591.39 337.08
  Q 1589.35 337.02 1589.18 337.19
  Z
  M 1597.39 340.61
  L 1594.92 339.27
  A 0.64 0.64 0.0 0 0 1594.01 340.06
  Q 1594.74 341.98 1596.21 342.07
  A 0.78 0.73 -21.6 0 1 1596.69 342.26
  Q 1597.96 343.40 1600.22 342.86
  A 0.87 0.86 -6.8 0 0 1600.89 342.02
  L 1600.89 341.77
  A 0.80 0.80 0.0 0 1 1601.69 340.97
  L 1607.44 340.97
  A 0.58 0.57 84.6 0 0 1608.00 340.28
  Q 1607.62 338.34 1608.89 337.66
  A 0.34 0.34 0.0 0 0 1608.82 337.03
  Q 1607.67 336.70 1606.88 337.64
  A 1.10 1.10 0.0 0 1 1606.04 338.03
  L 1602.77 338.03
  A 0.98 0.92 -57.2 0 0 1602.33 338.14
  L 1597.81 340.60
  A 0.44 0.43 -45.7 0 1 1597.39 340.61
  Z
  M 1574.38 340.95
  L 1575.04 341.46
  A 0.60 0.60 0.0 0 0 1575.86 341.38
  Q 1576.34 340.81 1577.31 340.97
  A 0.70 0.69 -2.3 0 0 1578.09 340.13
  L 1577.83 338.98
  A 1.24 1.24 0.0 0 0 1576.89 338.04
  Q 1574.86 337.58 1574.02 339.65
  A 1.12 1.11 -60.7 0 0 1574.38 340.95
  Z
  M 1558.65 341.19
  A 0.91 0.56 68.5 0 0 1558.39 342.66
  Q 1558.52 342.78 1559.05 342.90
  A 0.48 0.47 76.0 0 0 1559.51 342.13
  Q 1558.76 341.25 1558.65 341.19
  Z
  M 1583.84 341.55
  A 0.45 0.45 0.0 0 0 1584.72 341.52
  C 1584.83 341.03 1583.71 341.10 1583.84 341.55
  Z
  M 1606.53 343.20
  Q 1603.86 342.40 1602.40 343.95
  Q 1602.09 344.27 1602.04 344.69
  Q 1602.00 345.04 1601.87 345.39
  A 0.88 0.87 -81.2 0 1 1601.10 345.96
  L 1599.29 346.04
  A 1.53 1.53 0.0 0 0 1599.01 349.05
  Q 1601.22 349.57 1602.22 346.49
  A 0.76 0.75 7.7 0 1 1602.91 345.97
  L 1604.26 345.91
  A 1.04 1.02 18.2 0 0 1605.01 345.54
  Q 1605.53 344.94 1606.19 344.94
  A 0.92 0.87 -35.3 0 0 1606.53 343.20
  Z
  M 1610.00 345.92
  A 1.06 1.06 0.0 0 0 1608.94 344.86
  A 1.06 1.06 0.0 0 0 1607.88 345.92
  A 1.06 1.06 0.0 0 0 1608.94 346.98
  A 1.06 1.06 0.0 0 0 1610.00 345.92
  Z
  M 1616.15 352.52
  A 0.56 0.49 54.3 0 0 1617.04 352.73
  Q 1617.78 351.74 1618.95 351.97
  A 0.92 0.91 -61.4 0 0 1619.78 351.72
  L 1622.78 348.72
  A 1.07 1.07 0.0 0 0 1622.78 347.21
  L 1620.96 345.39
  A 1.28 1.27 -23.8 0 0 1619.99 345.02
  Q 1618.05 345.13 1617.18 345.03
  Q 1615.36 344.82 1613.41 346.03
  Q 1611.51 347.22 1612.07 349.30
  A 1.64 1.62 15.6 0 0 1612.47 350.00
  L 1614.28 351.81
  A 0.79 0.78 -31.4 0 0 1615.08 352.00
  Q 1615.84 351.77 1616.15 352.52
  Z
  M 1665.9498 384.9601
  A 2.45 1.95 -0.7 0 0 1663.4762 383.0401
  A 2.45 1.95 -0.7 0 0 1661.0502 385.0199
  A 2.45 1.95 -0.7 0 0 1663.5238 386.9399
  A 2.45 1.95 -0.7 0 0 1665.9498 384.9601
  Z
  M 1670.8321 912.9235
  A 11.18 8.12 -102.7 0 0 1665.3687 925.6152
  A 11.18 8.12 -102.7 0 0 1675.7479 934.7365
  A 11.18 8.12 -102.7 0 0 1681.2113 922.0448
  A 11.18 8.12 -102.7 0 0 1670.8321 912.9235
  Z
  M 1582.21 1432.95
  A 1.04 1.04 0.0 0 0 1581.13 1433.59
  Q 1578.76 1439.40 1578.19 1445.25
  Q 1576.52 1462.23 1576.19 1469.00
  Q 1574.95 1494.31 1578.87 1518.96
  Q 1579.56 1523.29 1580.57 1527.17
  A 3.80 3.80 0.0 0 1 1579.85 1530.51
  C 1576.88 1534.21 1564.02 1550.81 1575.50 1552.03
  C 1578.96 1552.39 1583.88 1551.62 1584.86 1547.64
  C 1585.66 1544.41 1585.81 1541.47 1587.21 1538.32
  C 1589.54 1533.06 1595.50 1527.28 1599.84 1524.31
  A 2.71 2.63 85.3 0 0 1600.78 1523.17
  Q 1602.36 1519.63 1602.00 1515.50
  C 1601.65 1511.46 1601.00 1505.34 1599.71 1500.81
  C 1598.69 1497.21 1597.95 1493.13 1596.65 1488.76
  Q 1593.64 1478.58 1593.16 1475.81
  Q 1590.18 1458.75 1588.92 1451.04
  C 1588.10 1445.98 1586.74 1440.87 1585.43 1436.09
  Q 1584.66 1433.25 1582.21 1432.95
  Z"
/>
<path fill="#151515" d="
  M 1122.81 234.77
  C 1122.61 238.37 1116.67 239.29 1113.82 239.44
  Q 1108.82 239.69 1108.25 234.92
  Q 1107.98 232.69 1110.72 231.20
  A 1.45 1.40 -52.7 0 1 1111.68 231.05
  Q 1114.28 231.53 1119.87 232.22
  A 3.28 2.32 5.6 0 1 1122.81 234.77
  Z"
/>
<path fill="#151515" d="
  M 1562.48 244.76
  A 0.28 0.28 0.0 0 1 1562.83 244.94
  L 1562.88 245.10
  A 2.64 0.89 72.8 0 1 1562.81 247.88
  L 1562.56 247.96
  A 2.64 0.89 72.8 0 1 1560.93 245.70
  L 1560.88 245.55
  A 0.28 0.28 0.0 0 1 1561.07 245.20
  L 1562.48 244.76
  Z"
/>
<ellipse fill="#151515" cx="0.00" cy="0.00" transform="translate(1557.51,249.52) rotate(-139.5)" rx="0.60" ry="0.41"/>
<ellipse fill="#151515" cx="0.00" cy="0.00" transform="translate(1561.45,250.46) rotate(-63.3)" rx="0.51" ry="0.43"/>
<ellipse fill="#151515" cx="0.00" cy="0.00" transform="translate(1512.99,315.97) rotate(-47.2)" rx="1.22" ry="0.37"/>
<ellipse fill="#151515" cx="0.00" cy="0.00" transform="translate(1511.98,319.49) rotate(-2.0)" rx="1.06" ry="0.49"/>
<path fill="#151515" d="
  M 710.24 420.58
  A 0.52 0.52 0.0 0 1 711.01 419.89
  C 714.16 422.58 715.97 418.57 718.54 420.26
  Q 719.61 420.97 720.15 420.81
  Q 721.30 420.46 721.43 420.21
  A 5.49 5.26 -81.6 0 1 725.20 417.28
  Q 727.69 416.79 729.73 416.25
  A 1.44 1.43 50.1 0 1 730.70 416.34
  Q 731.62 416.78 732.10 416.79
  A 0.79 0.79 0.0 0 0 732.87 416.28
  Q 733.48 414.71 734.66 414.06
  A 0.74 0.73 -38.7 0 1 735.51 414.15
  L 736.96 415.46
  A 1.69 1.69 0.0 0 0 739.35 415.33
  L 741.60 412.82
  A 0.99 0.98 30.1 0 1 742.65 412.55
  Q 745.74 413.63 749.04 410.43
  A 1.23 1.23 0.0 0 1 750.48 410.24
  Q 752.26 411.22 754.38 410.79
  Q 755.82 410.50 757.85 410.67
  A 2.00 1.88 -52.5 0 0 758.71 410.53
  Q 760.56 409.77 761.34 408.41
  A 0.35 0.35 0.0 0 1 761.99 408.56
  L 762.09 410.85
  A 1.07 1.07 0.0 0 0 763.86 411.61
  Q 765.41 410.27 765.05 408.79
  A 0.37 0.36 -89.1 0 1 765.50 408.35
  L 766.84 408.74
  A 0.69 0.63 42.6 0 0 767.23 408.74
  L 773.31 407.13
  A 0.57 0.57 0.0 0 1 774.00 407.52
  Q 774.21 408.24 774.08 408.98
  A 0.55 0.55 0.0 0 0 774.82 409.59
  L 775.91 409.14
  A 0.69 0.68 -27.0 0 1 776.73 409.40
  Q 776.83 409.55 777.22 409.73
  A 0.54 0.54 0.0 0 0 777.99 409.24
  L 777.99 407.71
  A 0.86 0.86 0.0 0 1 779.38 407.03
  L 780.38 407.81
  A 0.76 0.76 0.0 0 0 781.24 407.86
  C 783.12 406.70 785.02 407.36 787.11 406.51
  Q 788.55 405.91 789.15 408.35
  A 0.93 0.92 -30.8 0 0 790.74 408.75
  L 791.85 407.51
  A 0.53 0.53 0.0 0 1 792.39 407.35
  L 793.75 407.75
  A 1.12 1.11 36.9 0 0 794.65 407.63
  Q 796.17 406.69 798.74 406.95
  A 0.64 0.63 2.2 0 1 799.31 407.55
  Q 799.36 408.66 798.33 409.39
  A 0.79 0.79 0.0 0 0 798.26 410.62
  L 798.54 410.87
  A 0.75 0.75 0.0 0 0 799.45 410.93
  C 801.23 409.72 802.47 409.94 802.74 407.67
  A 0.67 0.67 0.0 0 1 803.33 407.09
  Q 808.11 406.60 811.01 407.73
  A 0.95 0.94 -51.2 0 0 811.90 407.63
  L 812.38 407.31
  A 0.91 0.90 41.5 0 1 813.32 407.26
  Q 815.81 408.57 818.75 407.69
  A 1.45 1.45 0.0 0 0 819.62 406.96
  L 820.31 405.52
  A 0.98 0.98 0.0 0 1 822.01 405.42
  Q 822.84 406.71 824.63 407.84
  A 1.57 1.46 22.4 0 0 826.96 406.97
  Q 827.24 405.58 829.51 406.02
  A 0.51 0.51 0.0 0 1 829.81 406.83
  L 829.47 407.28
  A 0.40 0.40 0.0 0 0 829.89 407.91
  Q 832.54 407.20 833.53 405.18
  A 1.44 1.44 0.0 0 1 834.21 404.50
  Q 835.66 403.82 837.50 401.97
  A 0.31 0.31 0.0 0 1 838.03 402.15
  L 838.15 403.15
  A 0.03 0.02 -31.7 0 1 838.14 403.17
  Q 837.03 404.48 837.09 405.35
  A 0.97 0.86 -29.2 0 0 838.75 405.71
  Q 839.76 404.54 840.89 404.03
  A 0.57 0.57 0.0 0 1 841.67 404.36
  C 842.44 406.41 843.17 407.27 845.42 406.33
  Q 846.95 405.69 848.61 406.80
  A 0.78 0.78 0.0 0 0 849.81 406.01
  Q 849.70 405.43 849.27 404.70
  A 1.19 1.18 -49.0 0 1 849.20 403.64
  Q 850.27 401.06 849.90 398.37
  A 0.35 0.34 10.2 0 1 850.41 398.02
  C 851.99 398.88 852.35 399.60 851.54 401.40
  Q 850.79 403.06 851.09 405.34
  A 0.78 0.77 89.9 0 0 851.75 406.01
  L 856.99 406.81
  A 1.38 1.36 25.2 0 0 858.21 406.38
  C 859.31 405.19 859.09 403.37 861.52 402.82
  A 0.39 0.39 0.0 0 1 861.89 403.47
  L 860.27 405.28
  A 1.13 1.13 0.0 0 0 861.40 407.12
  Q 863.98 406.44 865.74 403.69
  A 1.91 1.87 -41.9 0 1 869.04 403.84
  Q 869.10 403.97 869.12 405.03
  A 1.00 0.99 -75.5 0 0 869.61 405.87
  Q 870.77 406.54 871.65 405.68
  A 1.08 1.06 67.1 0 0 871.97 404.87
  L 871.92 403.78
  A 0.49 0.49 0.0 0 1 872.59 403.31
  Q 874.76 404.17 875.82 405.40
  A 0.51 0.50 -57.2 0 0 876.69 405.21
  L 876.79 404.88
  A 0.71 0.71 0.0 0 1 877.34 404.38
  C 880.00 403.89 886.09 402.67 887.24 405.34
  A 1.46 1.39 -49.0 0 0 889.90 405.09
  Q 890.85 402.07 894.61 403.11
  Q 894.87 403.18 895.31 403.50
  Q 895.77 403.83 896.28 403.31
  A 0.89 0.88 19.9 0 1 896.87 403.04
  L 901.67 402.82
  A 0.37 0.37 0.0 0 1 901.96 403.44
  L 900.08 405.54
  A 0.63 0.63 0.0 0 0 900.89 406.49
  Q 901.85 405.86 903.69 405.99
  Q 905.07 406.09 905.02 404.20
  A 1.23 1.22 89.1 0 1 906.24 402.93
  L 908.03 402.93
  A 0.96 0.96 0.0 0 1 908.99 403.89
  L 908.99 406.29
  A 0.67 0.65 -87.1 0 0 909.57 406.95
  Q 911.39 407.17 911.86 406.26
  A 0.44 0.44 0.0 0 1 912.57 406.16
  Q 913.59 407.28 914.77 405.65
  Q 915.62 404.49 917.61 405.68
  A 0.26 0.25 15.7 0 0 918.00 405.47
  L 918.00 403.46
  A 0.38 0.38 0.0 0 1 918.62 403.16
  Q 919.50 403.86 919.83 404.43
  A 0.73 0.72 -37.5 0 1 919.71 405.29
  Q 918.79 406.20 919.08 407.43
  A 0.91 0.86 -23.9 0 0 920.45 407.91
  Q 922.65 406.47 923.35 404.42
  A 0.30 0.29 20.8 0 1 923.74 404.25
  Q 923.98 404.36 924.00 404.75
  A 0.16 0.15 72.0 0 1 923.93 404.90
  L 923.42 405.25
  A 0.85 0.84 73.5 0 0 923.04 405.96
  L 923.04 410.41
  A 0.44 0.44 0.0 0 0 923.77 410.73
  L 926.33 408.32
  A 1.30 1.25 -65.5 0 1 927.19 407.98
  L 932.83 407.98
  A 1.26 1.26 0.0 0 1 934.09 409.24
  L 934.09 410.79
  A 0.84 0.84 0.0 0 0 934.64 411.58
  Q 937.13 412.48 939.09 411.53
  A 1.00 0.99 46.6 0 1 940.00 411.56
  Q 942.69 413.03 945.05 413.17
  A 1.69 1.67 -22.6 0 1 946.08 413.59
  L 947.16 414.56
  A 1.37 1.36 65.7 0 0 948.07 414.91
  Q 955.29 414.98 955.30 414.98
  A 1.10 0.96 -62.4 0 1 955.75 416.88
  Q 955.19 417.35 955.06 418.01
  A 0.88 0.82 -28.4 0 0 956.69 418.44
  Q 957.05 417.66 957.26 417.38
  A 0.95 0.95 0.0 0 1 958.99 417.86
  L 959.06 419.39
  A 0.57 0.56 -86.7 0 0 959.52 419.91
  Q 961.17 420.20 961.85 419.54
  A 1.26 1.07 61.1 0 1 963.71 420.24
  Q 965.04 424.40 969.18 424.03
  A 2.45 2.43 -34.2 0 1 970.47 424.27
  Q 972.18 425.08 974.13 424.95
  A 2.64 2.63 0.5 0 1 976.95 427.80
  Q 976.91 428.17 977.29 428.56
  A 1.24 1.23 65.8 0 0 978.26 428.93
  Q 981.60 428.66 985.96 430.38
  A 2.89 2.87 -32.2 0 0 986.81 430.57
  Q 987.66 430.62 987.93 430.49
  A 2.89 2.87 52.5 0 1 990.98 430.90
  Q 1002.00 440.12 1006.54 443.99
  Q 1007.18 444.54 1008.48 446.24
  A 3.25 3.20 -72.4 0 1 1009.01 447.28
  Q 1011.59 455.94 1018.57 471.71
  Q 1025.57 487.54 1035.49 499.54
  C 1039.35 504.21 1045.07 508.23 1050.99 508.87
  A 2.62 2.62 0.0 0 0 1052.05 508.77
  Q 1060.62 506.08 1062.10 497.77
  A 0.94 0.94 0.0 0 1 1062.98 496.99
  L 1065.05 496.90
  A 0.70 0.70 0.0 0 0 1065.70 496.39
  Q 1066.03 495.34 1066.03 494.92
  A 0.97 0.97 0.0 0 1 1067.86 494.49
  L 1068.55 495.84
  A 0.52 0.51 55.2 0 0 1069.36 495.99
  Q 1069.92 495.46 1069.97 494.87
  A 0.59 0.59 0.0 0 1 1071.00 494.52
  Q 1076.51 500.55 1084.18 502.82
  A 5.99 5.88 -12.8 0 1 1086.81 504.44
  Q 1096.33 514.60 1110.64 530.44
  C 1115.64 535.98 1120.53 540.57 1124.20 545.76
  Q 1125.67 547.85 1126.03 549.40
  A 2.01 2.00 -12.7 0 1 1124.49 551.82
  Q 1122.46 552.25 1120.08 551.89
  Q 1115.86 551.24 1111.14 550.15
  A 1.92 1.77 -36.0 0 0 1110.71 550.10
  L 1106.91 550.06
  A 1.25 1.23 -68.1 0 0 1105.97 550.47
  L 1104.39 552.24
  A 1.07 1.06 55.8 0 0 1104.19 553.33
  Q 1106.09 558.29 1108.17 561.08
  Q 1133.86 595.62 1148.35 636.39
  Q 1148.96 638.12 1151.45 642.69
  C 1154.08 647.51 1158.08 650.68 1162.94 652.98
  C 1165.98 654.42 1169.16 653.44 1172.15 654.58
  A 3.32 3.31 -43.6 0 0 1174.37 654.63
  C 1179.58 652.89 1185.09 653.86 1186.76 659.80
  Q 1187.43 662.18 1188.17 677.07
  A 11.25 10.73 -54.3 0 0 1188.43 678.94
  Q 1189.26 682.58 1189.13 686.14
  A 2.78 2.78 0.0 0 0 1189.53 687.68
  C 1192.45 692.52 1197.45 696.62 1201.01 701.99
  Q 1205.97 709.48 1209.00 718.03
  A 0.68 0.68 0.0 0 1 1208.28 718.93
  Q 1206.91 718.79 1205.98 719.59
  A 0.74 0.74 0.0 0 0 1206.47 720.89
  L 1209.97 720.89
  A 1.12 1.12 0.0 0 1 1211.09 721.99
  L 1211.12 724.91
  A 1.34 1.32 20.2 0 0 1211.58 725.89
  Q 1211.64 725.94 1211.84 726.05
  A 0.35 0.35 0.0 0 1 1211.94 726.59
  L 1210.90 727.74
  A 0.43 0.43 0.0 0 1 1210.24 727.72
  Q 1209.44 726.76 1207.79 726.97
  A 0.56 0.55 75.1 0 0 1207.35 727.74
  Q 1207.49 728.08 1207.66 728.25
  A 0.55 0.55 0.0 0 1 1207.59 729.08
  Q 1207.25 729.32 1207.09 730.12
  A 0.62 0.61 14.7 0 0 1207.51 730.83
  Q 1208.38 731.11 1208.94 730.60
  A 0.66 0.64 -54.4 0 1 1209.60 730.48
  Q 1211.28 731.11 1212.62 730.95
  A 2.35 2.13 -89.6 0 1 1214.96 733.56
  Q 1214.59 736.94 1217.76 739.29
  A 0.87 0.87 0.0 0 1 1217.62 740.77
  Q 1216.59 741.26 1214.31 740.72
  A 0.31 0.31 0.0 0 1 1214.24 740.14
  Q 1215.36 739.55 1214.92 737.93
  A 0.99 0.98 -87.0 0 0 1214.33 737.27
  Q 1213.09 736.80 1212.44 736.05
  A 0.62 0.62 0.0 0 0 1211.41 736.73
  Q 1212.50 738.94 1211.79 740.60
  A 2.57 2.24 -73.2 0 0 1213.35 744.07
  Q 1213.55 744.10 1214.06 743.69
  A 1.78 1.77 33.7 0 1 1215.67 743.37
  L 1218.80 744.28
  A 1.67 1.67 0.0 0 1 1219.63 746.95
  Q 1218.62 748.17 1216.67 749.03
  A 1.21 1.19 -13.8 0 0 1215.96 750.18
  L 1216.05 752.29
  A 0.67 0.66 88.6 0 0 1216.71 752.93
  L 1218.52 752.93
  A 0.49 0.49 0.0 0 0 1219.01 752.41
  L 1218.95 751.12
  A 0.87 0.84 78.5 0 1 1219.48 750.29
  Q 1220.33 749.96 1221.19 749.99
  A 0.65 0.65 0.0 0 0 1221.85 749.47
  Q 1221.90 749.23 1221.91 749.22
  A 0.37 0.36 -37.7 0 1 1222.51 749.29
  L 1224.95 753.88
  A 1.12 1.03 -61.0 0 1 1225.07 754.38
  L 1225.07 759.99
  A 0.51 0.50 73.1 0 1 1224.85 760.41
  L 1222.62 761.93
  A 0.53 0.53 0.0 0 0 1222.88 762.90
  Q 1224.32 762.99 1225.76 764.00
  A 0.72 0.71 37.8 0 0 1226.69 763.89
  L 1227.36 763.15
  A 0.91 0.91 0.0 0 1 1228.95 763.72
  L 1229.06 765.94
  A 1.20 1.17 -76.9 0 0 1229.65 766.92
  Q 1229.88 767.05 1230.48 767.06
  A 0.40 0.40 0.0 0 1 1230.79 767.70
  L 1230.11 768.57
  A 0.62 0.62 0.0 0 0 1231.06 769.37
  L 1231.95 768.38
  A 0.57 0.56 -21.3 0 1 1232.94 768.81
  Q 1232.74 770.83 1234.34 771.09
  A 0.83 0.83 0.0 0 1 1235.02 771.73
  Q 1235.23 772.71 1234.98 773.65
  A 0.36 0.35 -58.4 0 1 1234.37 773.80
  Q 1233.22 772.51 1231.45 773.34
  A 0.74 0.73 -32.7 0 0 1231.20 774.47
  Q 1233.59 777.35 1234.13 780.11
  A 1.52 1.35 -43.4 0 0 1236.89 780.02
  Q 1236.96 779.81 1237.03 779.67
  A 0.50 0.49 19.1 0 1 1237.59 779.40
  Q 1240.70 780.15 1241.74 783.40
  A 0.40 0.39 -17.7 0 1 1241.48 783.89
  Q 1238.94 784.63 1238.08 787.10
  C 1237.28 789.41 1239.66 791.33 1241.13 792.68
  A 0.45 0.44 28.0 0 0 1241.87 792.46
  Q 1242.37 790.18 1244.75 791.34
  Q 1245.81 791.85 1246.71 792.13
  A 0.46 0.45 53.4 0 1 1246.58 793.02
  L 1242.23 793.02
  A 0.50 0.50 0.0 0 0 1241.81 793.80
  L 1242.42 794.69
  A 0.74 0.72 72.3 0 0 1243.02 795.01
  L 1246.51 795.01
  A 0.44 0.43 35.8 0 1 1246.65 795.86
  Q 1244.65 796.51 1243.17 798.21
  A 0.97 0.95 -44.0 0 0 1243.14 799.44
  C 1245.33 802.12 1246.48 803.54 1249.44 802.83
  A 0.87 0.87 0.0 0 0 1249.23 801.11
  L 1247.97 801.11
  A 0.77 0.77 0.0 0 1 1247.40 800.86
  Q 1246.40 799.81 1248.39 798.22
  A 0.96 0.96 0.0 0 1 1249.95 799.05
  Q 1249.87 800.04 1251.44 802.81
  A 1.47 1.47 0.0 0 1 1251.55 803.98
  Q 1251.14 805.21 1252.42 805.88
  A 0.99 0.99 0.0 0 1 1252.94 806.75
  L 1252.94 808.80
  A 0.25 0.25 0.0 0 1 1252.49 808.96
  Q 1251.98 808.31 1251.99 806.86
  A 0.52 0.52 0.0 0 0 1251.18 806.43
  Q 1250.27 807.07 1249.56 808.09
  A 0.85 0.85 0.0 0 0 1249.69 809.21
  L 1250.17 809.64
  A 2.45 2.45 0.0 0 1 1250.98 811.46
  L 1250.98 817.00
  A 1.12 1.11 -1.2 0 0 1252.15 818.11
  L 1255.45 817.96
  A 0.67 0.66 11.1 0 0 1256.02 817.58
  Q 1256.31 816.93 1257.26 816.93
  A 0.75 0.74 -7.6 0 1 1257.98 817.47
  C 1258.92 820.86 1257.18 820.45 1256.15 822.60
  Q 1255.94 823.02 1256.12 823.47
  A 0.35 0.35 0.0 0 0 1256.69 823.60
  Q 1257.17 823.13 1258.01 823.05
  A 0.96 0.95 14.0 0 1 1258.91 824.53
  Q 1258.77 824.72 1258.35 825.45
  A 0.35 0.35 0.0 0 0 1258.68 825.97
  Q 1259.44 825.92 1259.68 826.28
  Q 1259.91 826.61 1259.34 827.08
  Q 1256.81 829.14 1258.43 832.88
  Q 1258.84 833.83 1259.84 834.02
  A 1.01 1.01 0.0 0 0 1260.74 832.32
  Q 1260.08 831.64 1260.11 830.48
  A 0.46 0.46 0.0 0 1 1260.85 830.13
  L 1263.00 831.79
  A 0.86 0.79 -82.0 0 1 1263.27 832.18
  L 1264.63 836.52
  A 0.43 0.42 -8.5 0 1 1264.22 837.07
  L 1261.74 837.07
  A 0.80 0.79 89.0 0 0 1260.95 837.90
  L 1260.97 838.20
  A 0.79 0.79 0.0 0 0 1261.80 838.96
  L 1264.93 838.82
  A 0.89 0.83 61.1 0 1 1265.48 839.00
  Q 1266.52 839.82 1265.86 841.79
  A 0.36 0.36 0.0 0 1 1265.57 842.03
  Q 1265.32 842.06 1265.17 842.21
  A 0.17 0.15 -22.5 0 0 1265.11 842.33
  Q 1265.01 843.50 1265.04 845.53
  Q 1265.06 846.76 1265.50 846.90
  Q 1265.90 847.02 1266.58 847.03
  A 0.36 0.36 0.0 0 1 1266.89 847.57
  L 1265.16 850.61
  A 0.59 0.56 45.3 0 0 1265.17 851.20
  Q 1265.91 852.41 1266.90 850.69
  A 0.89 0.89 0.0 0 1 1268.53 850.87
  Q 1269.46 853.88 1271.05 858.40
  A 2.27 2.24 -33.4 0 1 1270.56 860.70
  Q 1268.16 863.25 1269.09 868.37
  A 0.44 0.43 64.8 0 0 1269.79 868.63
  Q 1271.41 867.28 1272.65 869.15
  Q 1273.00 869.69 1273.88 871.34
  A 0.46 0.46 0.0 0 1 1273.47 872.02
  L 1270.51 872.02
  A 0.47 0.47 0.0 0 0 1270.04 872.50
  L 1270.10 875.10
  A 1.90 1.90 0.0 0 0 1272.79 876.79
  Q 1272.82 876.78 1273.35 876.28
  A 0.44 0.44 0.0 0 1 1274.07 876.48
  Q 1274.14 876.73 1274.03 877.14
  C 1273.81 877.90 1272.82 878.73 1272.30 879.23
  A 0.52 0.51 43.9 0 0 1272.32 879.98
  L 1273.17 880.74
  A 0.65 0.64 41.6 0 0 1274.09 880.69
  L 1274.62 880.10
  A 0.24 0.24 0.0 0 1 1275.03 880.26
  L 1275.03 886.55
  A 0.31 0.31 0.0 0 1 1274.50 886.76
  Q 1273.29 885.52 1271.47 886.17
  A 0.86 0.86 0.0 0 0 1271.73 887.84
  Q 1273.05 887.88 1275.44 889.22
  A 0.47 0.47 0.0 0 1 1275.57 889.92
  Q 1275.23 890.35 1275.22 890.93
  A 0.99 0.99 0.0 0 1 1274.48 891.86
  L 1273.59 892.10
  A 0.80 0.80 0.0 0 0 1272.99 892.86
  Q 1272.98 895.35 1272.57 896.19
  A 1.00 0.99 -51.9 0 0 1272.69 897.23
  Q 1273.97 898.85 1276.00 899.46
  A 0.96 0.95 35.4 0 1 1276.29 901.15
  Q 1274.69 902.32 1275.50 903.88
  A 3.26 3.24 -56.8 0 1 1275.85 905.58
  Q 1275.56 909.83 1274.56 912.79
  Q 1274.26 913.68 1274.73 913.61
  Q 1274.99 913.58 1275.15 913.56
  A 0.49 0.49 0.0 0 1 1275.68 914.18
  Q 1275.46 914.95 1274.84 915.76
  A 1.00 0.98 -38.9 0 0 1274.72 916.78
  C 1275.07 917.56 1274.17 919.04 1274.50 920.39
  Q 1275.07 922.76 1274.94 923.74
  Q 1271.88 947.32 1261.74 969.80
  Q 1261.32 970.72 1259.75 975.78
  A 2.87 2.69 -39.5 0 0 1259.63 976.71
  L 1261.14 1010.10
  A 1.91 1.61 -58.5 0 0 1261.19 1010.43
  Q 1261.90 1012.88 1262.03 1016.25
  Q 1262.15 1019.55 1261.94 1050.23
  Q 1261.83 1064.99 1256.55 1087.04
  Q 1255.80 1090.16 1251.21 1105.35
  Q 1248.40 1114.65 1246.04 1123.73
  Q 1244.50 1129.65 1234.71 1169.24
  Q 1228.49 1194.36 1218.59 1218.61
  Q 1194.55 1277.52 1165.09 1330.86
  Q 1162.51 1335.53 1157.18 1336.35
  A 3.84 3.55 -56.6 0 0 1156.53 1336.51
  Q 1130.09 1346.09 1118.83 1350.85
  C 1108.21 1355.34 1098.75 1360.59 1078.65 1370.91
  Q 1061.33 1379.81 1042.29 1383.87
  C 1040.80 1384.19 1038.64 1383.70 1036.88 1383.17
  Q 1021.86 1378.66 1015.49 1377.54
  Q 993.66 1373.71 971.19 1375.45
  C 959.56 1376.36 948.66 1381.49 937.53 1388.06
  Q 923.60 1396.28 907.53 1405.53
  A 4.46 4.40 -82.2 0 0 906.62 1406.23
  Q 904.21 1408.59 901.16 1412.13
  Q 896.32 1417.74 888.82 1419.45
  Q 881.22 1421.19 871.77 1420.37
  A 16.47 16.31 -45.3 0 0 868.59 1420.40
  C 863.24 1420.95 859.38 1421.17 855.07 1422.27
  A 9.00 8.89 -67.4 0 0 852.62 1423.30
  C 849.79 1425.00 847.06 1426.61 843.69 1425.92
  A 2.46 2.46 0.0 0 1 842.87 1425.59
  Q 839.29 1423.31 837.66 1422.37
  Q 824.07 1414.54 812.34 1424.23
  A 1.40 0.61 -61.8 0 0 812.22 1424.34
  L 804.14 1433.36
  A 2.13 2.12 -72.1 0 1 802.80 1434.05
  Q 800.50 1434.29 796.68 1433.86
  Q 785.40 1432.57 772.96 1430.74
  Q 758.99 1428.68 747.70 1425.03
  C 739.56 1422.40 731.02 1418.37 723.12 1413.70
  Q 714.38 1408.53 707.22 1404.38
  Q 689.92 1394.38 663.49 1380.90
  Q 658.13 1378.16 650.13 1374.82
  A 4.93 4.90 -39.3 0 0 647.26 1374.54
  Q 636.88 1376.65 627.63 1379.13
  Q 625.01 1379.83 622.65 1381.14
  A 4.36 4.30 -3.9 0 0 620.73 1383.31
  Q 619.14 1387.23 619.06 1391.76
  Q 618.99 1395.21 618.31 1398.72
  A 8.76 7.85 -41.9 0 0 618.17 1400.00
  C 618.00 1407.41 617.73 1413.28 615.99 1420.18
  A 1.51 1.51 0.0 0 1 613.01 1419.90
  Q 612.90 1418.00 612.93 1416.75
  Q 613.04 1412.72 614.40 1393.04
  Q 614.89 1386.01 615.00 1382.68
  Q 615.12 1378.99 615.79 1372.35
  Q 616.26 1367.64 615.83 1361.78
  Q 615.48 1357.09 610.54 1355.30
  A 3.03 3.03 0.0 0 0 609.57 1355.12
  C 605.96 1355.00 602.79 1355.09 597.98 1354.40
  Q 593.53 1353.76 590.25 1354.09
  C 586.24 1354.49 584.10 1350.99 582.91 1347.64
  Q 580.62 1341.20 574.61 1338.90
  C 566.95 1335.97 553.70 1342.06 546.93 1346.43
  Q 541.05 1350.22 536.32 1345.95
  C 531.36 1341.47 525.98 1339.82 519.24 1341.81
  C 515.75 1342.84 510.41 1337.14 507.73 1335.02
  Q 501.16 1329.84 496.80 1322.46
  Q 493.80 1317.37 486.64 1303.49
  C 482.89 1296.22 480.04 1291.22 475.26 1282.76
  A 1.40 1.39 75.2 0 0 474.05 1282.05
  L 470.22 1282.05
  A 0.99 0.93 -30.1 0 1 469.79 1281.95
  C 467.34 1280.72 464.16 1281.38 461.67 1280.31
  C 456.53 1278.09 448.88 1273.00 448.89 1266.96
  A 0.81 0.80 86.8 0 1 449.60 1266.16
  Q 451.95 1265.89 453.77 1264.54
  C 457.79 1261.57 457.53 1258.59 455.66 1254.07
  Q 453.61 1249.11 451.62 1243.12
  C 449.71 1237.38 454.94 1235.73 456.76 1231.44
  A 2.33 2.32 43.6 0 0 456.71 1229.52
  Q 453.39 1222.64 448.20 1213.89
  Q 447.24 1212.29 445.74 1211.45
  A 0.76 0.75 35.0 0 0 444.80 1211.61
  Q 442.23 1214.55 442.13 1216.53
  Q 441.82 1222.65 442.39 1225.36
  Q 442.71 1226.91 445.27 1229.93
  A 2.99 2.90 -73.3 0 1 445.86 1231.07
  C 447.01 1235.50 444.71 1236.97 441.18 1240.39
  A 0.90 0.89 30.9 0 1 440.28 1240.61
  Q 436.94 1239.58 435.36 1237.51
  C 433.65 1235.28 431.48 1233.40 430.34 1230.66
  C 427.83 1224.64 429.48 1219.21 432.42 1213.19
  C 434.52 1208.91 434.67 1207.11 431.87 1203.16
  Q 411.43 1174.42 404.19 1162.34
  Q 395.38 1147.64 391.29 1134.24
  Q 389.57 1128.63 390.06 1119.91
  A 2.54 2.41 -55.4 0 0 389.91 1118.95
  Q 389.60 1118.09 388.65 1117.15
  A 2.23 2.15 10.3 0 1 388.19 1116.51
  C 385.94 1111.84 383.83 1107.81 385.92 1102.92
  Q 386.64 1101.22 390.89 1098.30
  Q 394.53 1095.79 398.40 1090.80
  A 2.61 2.41 -20.4 0 0 398.83 1089.95
  Q 401.03 1082.42 400.75 1079.99
  C 399.76 1071.47 398.94 1066.93 398.94 1059.96
  Q 398.96 1038.53 399.06 1031.75
  Q 399.13 1026.66 398.03 1022.73
  A 2.36 2.29 -53.6 0 1 397.93 1021.99
  L 398.01 1009.17
  A 1.31 1.30 66.1 0 1 398.34 1008.30
  L 398.71 1007.89
  A 1.22 1.18 65.8 0 0 399.02 1007.03
  Q 398.56 993.80 399.98 984.25
  Q 402.46 967.57 405.91 945.37
  Q 407.64 934.28 408.51 927.20
  Q 409.80 916.66 410.91 908.99
  C 412.61 897.39 413.86 884.49 415.64 870.60
  Q 416.51 863.83 417.28 855.23
  Q 418.90 837.23 420.79 821.00
  Q 422.11 809.69 422.93 805.46
  Q 426.25 788.32 432.23 770.83
  C 438.09 753.69 443.49 736.20 448.28 719.84
  Q 456.50 691.76 460.96 676.02
  Q 472.68 634.62 487.05 591.56
  Q 487.45 590.37 490.01 583.51
  C 492.44 577.02 497.05 569.20 504.73 569.02
  Q 506.49 568.98 518.87 568.91
  Q 519.74 568.90 521.43 567.70
  Q 522.12 567.20 523.56 565.79
  Q 554.41 535.50 579.35 514.84
  Q 580.57 513.83 586.00 508.48
  Q 595.66 498.94 600.81 485.28
  Q 604.96 474.25 607.67 464.69
  Q 608.12 463.11 609.87 461.60
  A 3.21 3.18 -78.9 0 1 610.43 461.22
  Q 611.92 460.43 620.52 456.17
  C 622.28 455.30 623.73 454.02 624.41 452.30
  A 2.71 2.32 33.2 0 0 623.60 449.52
  C 620.80 446.99 617.36 446.18 613.26 445.03
  A 2.42 2.37 -19.1 0 1 612.54 444.69
  L 610.61 443.30
  A 1.67 1.67 0.0 0 1 610.48 440.68
  C 612.61 438.82 614.51 438.34 618.59 436.85
  C 624.79 434.60 630.74 437.97 632.41 444.31
  Q 632.88 446.09 635.25 454.21
  C 636.33 457.90 640.79 457.42 643.49 455.73
  C 649.38 452.06 651.93 447.59 655.11 441.77
  A 4.82 4.81 -81.6 0 1 658.32 439.38
  Q 666.64 437.62 673.63 433.45
  C 677.61 431.07 680.15 428.24 683.67 424.92
  Q 685.00 423.66 689.23 422.44
  A 0.74 0.74 0.0 0 1 690.10 422.81
  Q 690.16 422.93 690.38 423.53
  Q 690.66 424.29 691.35 424.01
  Q 691.98 423.74 692.14 422.65
  A 0.93 0.92 -48.4 0 1 693.95 422.54
  L 694.20 423.51
  A 0.85 0.85 0.0 0 0 694.94 424.12
  Q 696.59 424.23 697.02 422.93
  A 1.20 1.20 0.0 0 1 697.76 422.16
  C 701.07 420.93 706.46 419.85 709.33 422.17
  A 0.84 0.84 0.0 0 0 710.55 421.04
  L 710.24 420.58
  Z
  M 868.05 405.01
  A 1.00 1.00 0.0 0 0 867.05 404.01
  A 1.00 1.00 0.0 0 0 866.05 405.01
  A 1.00 1.00 0.0 0 0 867.05 406.01
  A 1.00 1.00 0.0 0 0 868.05 405.01
  Z
  M 895.07 405.05
  A 1.05 1.05 0.0 0 0 894.02 404.00
  A 1.05 1.05 0.0 0 0 892.97 405.05
  A 1.05 1.05 0.0 0 0 894.02 406.10
  A 1.05 1.05 0.0 0 0 895.07 405.05
  Z
  M 916.23 408.75
  Q 917.22 409.74 917.45 409.81
  A 0.66 0.48 86.4 0 0 917.99 408.96
  Q 917.66 407.67 916.40 408.08
  A 0.41 0.41 0.0 0 0 916.23 408.75
  Z
  M 770.9843 409.8931
  A 1.09 0.90 -174.9 0 0 771.9900 410.8864
  A 1.09 0.90 -174.9 0 0 773.1557 410.0869
  A 1.09 0.90 -174.9 0 0 772.1500 409.0936
  A 1.09 0.90 -174.9 0 0 770.9843 409.8931
  Z
  M 930.99 410.00
  A 1.01 1.01 0.0 0 0 929.98 408.99
  A 1.01 1.01 0.0 0 0 928.97 410.00
  A 1.01 1.01 0.0 0 0 929.98 411.01
  A 1.01 1.01 0.0 0 0 930.99 410.00
  Z
  M 705.0413 421.9402
  A 1.07 0.89 -91.0 0 0 704.1701 423.0255
  A 1.07 0.89 -91.0 0 0 705.0787 424.0798
  A 1.07 0.89 -91.0 0 0 705.9499 422.9945
  A 1.07 0.89 -91.0 0 0 705.0413 421.9402
  Z
  M 1042.42 646.92
  Q 1043.49 647.41 1044.01 646.38
  A 0.73 0.72 -69.8 0 1 1044.82 646.00
  Q 1045.91 646.24 1046.54 644.65
  A 0.63 0.63 0.0 0 0 1046.47 644.05
  Q 1045.70 642.96 1045.42 642.85
  A 0.40 0.40 0.0 0 1 1045.30 642.17
  Q 1046.74 640.93 1046.94 640.22
  Q 1047.47 638.30 1049.99 636.82
  Q 1050.40 636.58 1051.06 637.78
  A 0.44 0.44 0.0 0 0 1051.77 637.86
  L 1052.97 636.52
  A 0.50 0.48 65.8 0 0 1053.10 636.16
  L 1052.90 631.74
  A 0.82 0.81 -11.0 0 1 1053.45 630.93
  Q 1053.97 630.76 1053.94 630.35
  A 1.00 0.97 23.9 0 0 1053.71 629.78
  Q 1040.69 613.68 1035.11 607.88
  Q 1020.82 592.99 1000.38 577.92
  Q 1000.35 577.89 990.35 571.07
  Q 973.32 559.46 957.06 542.93
  Q 927.81 513.19 913.18 495.57
  Q 908.90 490.41 902.98 490.90
  C 901.71 491.00 899.93 490.82 898.51 492.01
  C 894.62 495.26 894.30 499.19 895.85 504.00
  Q 897.36 508.67 898.10 509.94
  Q 900.73 514.45 908.27 526.28
  Q 911.13 530.78 908.60 534.67
  C 907.30 536.68 903.96 538.40 901.46 540.22
  C 899.33 541.78 896.42 547.09 897.33 550.47
  Q 897.80 552.22 898.65 553.62
  Q 903.91 562.36 912.41 568.60
  Q 926.83 579.18 943.97 586.44
  A 7.76 7.71 83.8 0 1 947.26 589.10
  C 950.15 593.21 956.34 602.10 961.70 602.12
  C 966.75 602.13 968.07 599.15 970.56 594.69
  C 971.49 593.02 972.51 592.39 974.28 592.04
  C 979.97 590.91 981.93 593.52 986.46 597.87
  Q 1004.53 615.18 1020.93 630.61
  Q 1028.50 637.74 1037.81 647.23
  A 1.95 1.94 -12.8 0 0 1038.59 647.72
  Q 1039.61 648.05 1040.42 648.82
  A 0.95 0.82 17.5 0 0 1041.99 648.14
  Q 1041.91 647.84 1041.91 647.24
  A 0.36 0.36 0.0 0 1 1042.42 646.92
  Z
  M 1072.26 948.66
  C 1065.41 945.72 1063.44 938.12 1063.13 931.48
  C 1062.78 924.15 1062.42 916.74 1063.31 909.52
  Q 1064.97 895.91 1071.12 880.64
  C 1073.10 875.72 1077.72 875.20 1080.73 871.37
  Q 1085.76 864.97 1084.89 857.16
  Q 1084.41 852.75 1081.97 850.34
  C 1078.21 846.64 1074.54 847.08 1069.69 846.89
  A 1.34 1.30 69.6 0 1 1068.75 846.44
  C 1064.64 841.76 1071.07 838.92 1070.86 834.94
  C 1070.68 831.32 1071.28 825.67 1070.68 821.00
  C 1069.92 815.14 1069.96 808.45 1069.91 803.79
  A 5.35 5.35 0.0 0 0 1067.51 799.40
  C 1062.77 796.28 1058.17 790.98 1057.85 784.92
  Q 1057.52 778.50 1059.02 774.85
  Q 1060.38 771.53 1059.92 770.02
  C 1059.02 767.09 1056.85 764.78 1054.11 763.65
  Q 1049.28 761.64 1046.90 760.99
  A 1.81 1.73 71.3 0 1 1046.23 760.64
  Q 1043.79 758.67 1043.27 757.46
  Q 1035.58 739.45 1023.49 727.49
  Q 1012.86 716.97 995.53 708.80
  C 993.44 707.82 990.99 706.26 990.35 704.46
  Q 985.60 691.16 983.14 685.60
  Q 975.65 668.69 960.80 651.46
  Q 957.16 647.24 953.04 642.38
  A 0.86 0.86 0.0 0 1 953.31 641.05
  Q 954.04 640.69 954.94 641.09
  Q 962.11 644.25 967.36 648.89
  C 970.05 651.28 972.24 654.92 974.42 657.83
  Q 975.57 659.37 977.02 659.97
  A 1.66 1.63 -39.8 0 0 977.99 660.05
  Q 978.93 659.84 980.27 658.06
  C 984.77 652.08 982.65 648.24 979.32 642.66
  Q 973.83 633.46 965.67 625.85
  C 959.36 619.98 952.13 617.28 943.69 620.67
  C 939.89 622.20 938.68 626.66 936.99 631.11
  A 2.17 2.16 31.2 0 1 933.52 631.96
  Q 930.78 629.51 927.88 625.62
  Q 923.44 619.64 916.93 611.39
  C 915.56 609.65 913.94 608.35 912.14 607.64
  Q 904.56 604.69 901.47 603.07
  Q 897.04 600.75 889.34 594.94
  C 883.98 590.90 877.49 583.52 871.72 578.98
  C 865.50 574.09 861.26 571.16 854.93 569.29
  Q 853.14 568.75 846.03 567.19
  A 2.17 2.10 40.5 0 0 844.90 567.26
  Q 841.86 568.29 840.25 569.51
  Q 828.47 578.35 815.50 584.99
  C 799.04 593.41 784.61 599.42 772.66 610.90
  C 767.95 615.43 764.85 619.20 758.41 617.55
  Q 757.11 617.22 753.13 616.92
  A 9.29 9.25 -35.7 0 1 751.65 616.68
  Q 746.83 615.53 741.16 616.24
  A 5.03 5.01 -66.4 0 0 738.85 617.15
  C 726.00 626.42 714.53 637.36 703.99 648.78
  Q 698.14 655.11 687.35 668.96
  Q 667.55 694.39 663.98 698.73
  C 634.96 734.00 606.82 769.16 584.73 807.47
  Q 579.42 816.68 572.80 830.80
  Q 556.20 866.20 549.43 903.47
  Q 546.05 922.09 544.61 939.56
  Q 543.76 949.88 543.08 960.21
  C 542.84 963.94 543.05 967.32 542.29 970.84
  A 8.68 8.15 53.2 0 0 542.10 972.53
  Q 541.85 992.30 542.08 996.02
  C 542.25 998.84 542.84 1002.16 542.95 1005.01
  Q 544.42 1043.23 550.72 1078.09
  C 555.37 1103.83 567.33 1124.89 589.72 1139.55
  Q 592.77 1141.54 597.92 1144.33
  C 601.03 1146.01 601.83 1147.90 602.78 1151.24
  Q 607.89 1169.15 610.00 1177.71
  Q 611.62 1184.26 616.71 1187.53
  Q 638.49 1201.54 655.69 1216.57
  Q 664.10 1223.92 673.43 1232.57
  Q 675.20 1234.21 676.67 1234.62
  Q 703.20 1242.00 724.87 1248.14
  Q 728.17 1249.08 734.14 1250.51
  A 8.67 8.66 44.0 0 0 738.38 1250.44
  Q 775.30 1240.38 809.72 1235.33
  Q 818.26 1234.08 827.01 1232.76
  Q 836.66 1231.31 854.51 1230.03
  Q 866.00 1229.20 877.78 1228.18
  A 3.94 3.94 0.0 0 1 878.93 1228.25
  C 882.20 1228.91 883.57 1230.13 885.81 1233.22
  A 3.26 3.10 87.0 0 0 886.59 1233.96
  Q 894.32 1239.16 903.50 1239.06
  Q 909.92 1238.99 910.77 1238.81
  Q 915.15 1237.88 919.01 1235.00
  C 922.66 1232.27 922.49 1227.98 921.46 1224.06
  C 920.36 1219.81 921.37 1216.11 923.10 1212.02
  C 924.45 1208.82 927.14 1207.68 929.90 1210.31
  C 934.54 1214.74 937.23 1220.47 941.78 1224.97
  Q 946.46 1229.59 952.30 1230.86
  A 3.74 3.68 42.9 0 0 954.10 1230.81
  Q 961.02 1228.88 966.02 1223.01
  C 967.96 1220.72 969.32 1216.88 966.37 1214.90
  C 963.83 1213.20 961.07 1213.22 958.09 1212.94
  C 950.32 1212.21 946.33 1212.56 942.28 1211.19
  C 936.51 1209.23 942.60 1202.53 945.13 1199.36
  Q 946.95 1197.06 950.06 1195.94
  A 2.01 1.97 -50.4 0 1 951.02 1195.84
  Q 954.14 1196.30 955.04 1196.95
  Q 964.29 1203.64 972.94 1207.00
  Q 983.76 1211.21 994.79 1207.01
  A 3.95 3.75 -73.1 0 0 995.67 1206.51
  Q 999.88 1203.21 1003.57 1198.41
  Q 1005.90 1195.39 1007.57 1191.09
  C 1010.10 1184.57 1011.94 1180.27 1010.51 1174.01
  C 1009.64 1170.17 1006.06 1166.36 1003.37 1163.85
  Q 999.51 1160.24 1001.77 1155.11
  Q 1005.10 1147.53 1012.11 1144.10
  Q 1017.76 1141.33 1020.96 1140.49
  C 1026.24 1139.09 1029.74 1135.90 1030.67 1130.94
  Q 1030.94 1129.48 1031.09 1122.82
  A 3.31 3.16 59.4 0 1 1031.38 1121.57
  C 1033.34 1117.36 1035.44 1116.25 1039.57 1114.86
  C 1043.73 1113.46 1050.72 1113.96 1053.80 1113.92
  A 1.17 1.15 23.6 0 0 1054.58 1113.62
  L 1060.43 1108.48
  A 15.80 15.45 -1.5 0 0 1062.13 1106.73
  C 1063.47 1104.64 1067.18 1101.12 1069.23 1098.38
  Q 1074.94 1090.77 1083.34 1079.62
  Q 1088.93 1072.20 1097.28 1066.82
  Q 1101.50 1064.10 1099.03 1059.72
  C 1097.05 1056.23 1090.42 1056.98 1086.95 1057.03
  C 1084.99 1057.06 1083.07 1056.37 1081.61 1055.37
  A 1.37 1.37 0.0 0 1 1081.36 1053.33
  C 1085.02 1049.19 1090.01 1046.02 1090.75 1039.22
  Q 1091.19 1035.18 1091.13 1032.63
  A 5.44 5.38 53.8 0 1 1091.40 1030.82
  Q 1094.03 1022.86 1094.71 1021.48
  C 1097.38 1016.12 1100.16 1009.85 1095.64 1005.16
  C 1093.43 1002.88 1088.27 1002.37 1085.53 1001.26
  Q 1081.02 999.42 1077.56 996.45
  Q 1075.00 994.26 1074.81 991.23
  C 1074.49 986.14 1082.27 980.07 1086.17 977.90
  A 1.59 1.58 -16.4 0 0 1086.99 976.40
  Q 1086.80 973.36 1087.64 972.56
  A 0.15 0.15 0.0 0 0 1087.68 972.49
  L 1089.94 960.77
  A 1.57 1.57 0.0 0 0 1089.05 959.05
  C 1083.22 956.37 1080.33 949.03 1082.79 943.10
  A 1.89 1.89 0.0 0 0 1082.49 941.16
  C 1080.95 939.31 1078.81 936.44 1076.43 937.01
  Q 1073.52 937.70 1072.27 940.41
  A 0.90 0.89 49.8 0 0 1072.22 941.03
  L 1073.87 947.26
  A 1.19 1.18 -85.8 0 1 1072.26 948.66
  Z
  M 1034.17 690.28
  L 1045.40 679.06
  A 2.05 2.05 0.0 0 0 1045.71 676.56
  Q 1039.85 666.74 1029.68 662.35
  Q 1027.61 661.46 1025.72 662.20
  Q 1019.50 664.62 1019.04 671.13
  A 3.97 3.92 -51.5 0 0 1019.19 672.52
  Q 1021.64 681.10 1022.83 682.71
  Q 1025.89 686.84 1030.06 690.44
  A 3.03 3.01 -47.1 0 0 1034.17 690.28
  Z
  M 1207.34 723.86
  L 1209.35 725.70
  A 0.26 0.26 0.0 0 0 1209.71 725.68
  L 1209.82 725.56
  A 1.54 1.50 42.4 0 0 1209.70 723.42
  L 1209.58 723.31
  A 1.54 1.50 42.4 0 0 1207.43 723.38
  L 1207.32 723.49
  A 0.26 0.26 0.0 0 0 1207.34 723.86
  Z
  M 1221.55 752.94
  A 1.17 1.04 -60.0 0 0 1221.13 750.87
  Q 1220.80 750.87 1220.21 751.59
  A 0.78 0.72 -57.6 0 0 1220.43 752.76
  Q 1221.27 753.13 1221.55 752.94
  Z
  M 1222.45 759.92
  Q 1223.53 760.51 1224.07 758.98
  Q 1224.58 757.54 1223.93 757.19
  Q 1223.28 756.83 1222.36 758.05
  Q 1221.37 759.34 1222.45 759.92
  Z
  M 1247.1486 806.4362
  A 1.15 0.74 -132.8 0 0 1247.3870 807.7828
  A 1.15 0.74 -132.8 0 0 1248.7114 808.1238
  A 1.15 0.74 -132.8 0 0 1248.4730 806.7772
  A 1.15 0.74 -132.8 0 0 1247.1486 806.4362
  Z
  M 1262.5141 840.1580
  A 1.54 1.02 -147.3 0 0 1263.2590 841.8483
  A 1.54 1.02 -147.3 0 0 1265.1059 841.8220
  A 1.54 1.02 -147.3 0 0 1264.3610 840.1317
  A 1.54 1.02 -147.3 0 0 1262.5141 840.1580
  Z
  M 1273.5400 883.1000
  A 0.88 0.46 -90.0 0 0 1273.0800 883.9800
  A 0.88 0.46 -90.0 0 0 1273.5400 884.8600
  A 0.88 0.46 -90.0 0 0 1274.0000 883.9800
  A 0.88 0.46 -90.0 0 0 1273.5400 883.1000
  Z
  M 1273.3843 900.1535
  A 0.82 0.39 -95.3 0 0 1273.0717 901.0060
  A 0.82 0.39 -95.3 0 0 1273.5357 901.7865
  A 0.82 0.39 -95.3 0 0 1273.8483 900.9340
  A 0.82 0.39 -95.3 0 0 1273.3843 900.1535
  Z
  M 1104.44 1106.36
  A 2.55 2.06 22.6 0 0 1102.88 1103.49
  Q 1099.92 1102.26 1096.54 1103.18
  A 1.48 1.48 0.0 0 0 1095.66 1103.83
  C 1094.23 1106.12 1091.25 1111.17 1094.48 1112.72
  A 1.29 1.27 48.6 0 0 1095.44 1112.79
  C 1098.62 1111.80 1103.19 1109.38 1104.44 1106.36
  Z
  M 512.86 1241.48
  C 510.35 1243.42 511.04 1247.65 511.07 1250.98
  A 3.59 3.58 -22.9 0 1 510.02 1253.56
  L 506.23 1257.35
  A 0.49 0.39 -20.3 0 0 506.11 1257.55
  Q 505.35 1260.01 507.32 1263.15
  Q 510.41 1268.06 507.88 1272.99
  C 506.75 1275.19 504.70 1276.46 503.68 1278.76
  Q 502.35 1281.79 503.10 1284.92
  C 504.06 1288.89 507.76 1290.01 511.40 1291.34
  Q 512.44 1291.72 524.13 1295.15
  C 533.31 1297.85 539.62 1298.98 550.00 1301.41
  C 556.22 1302.87 564.67 1303.92 571.26 1304.71
  Q 577.49 1305.45 580.40 1303.75
  A 1.15 1.14 80.8 0 0 580.96 1302.97
  Q 581.36 1300.89 579.63 1299.10
  Q 575.40 1294.70 569.25 1290.26
  Q 565.00 1287.19 564.32 1285.48
  C 563.12 1282.47 563.71 1276.15 568.39 1276.15
  A 2.47 2.45 -35.8 0 1 569.15 1276.27
  Q 576.32 1278.64 585.33 1281.39
  Q 589.10 1282.53 593.12 1281.89
  A 2.18 2.14 -6.1 0 0 594.95 1279.66
  C 594.54 1272.09 569.62 1269.62 563.80 1269.09
  C 561.14 1268.85 558.97 1268.30 556.96 1267.04
  Q 524.19 1246.53 517.05 1242.20
  Q 516.21 1241.70 513.73 1241.27
  A 1.10 1.09 -58.3 0 0 512.86 1241.48
  Z"
/>
<ellipse fill="#151515" cx="0.00" cy="0.00" transform="translate(873.58,398.59) rotate(-47.4)" rx="0.52" ry="0.35"/>
<ellipse fill="#151515" cx="0.00" cy="0.00" transform="translate(843.08,399.58) rotate(-172.6)" rx="0.94" ry="0.58"/>
<ellipse fill="#151515" cx="0.00" cy="0.00" transform="translate(861.50,400.03) rotate(-142.6)" rx="1.50" ry="0.73"/>
<path fill="#151515" d="
  M 787.76 402.10
  A 0.30 0.29 -55.5 0 1 787.85 402.64
  Q 787.49 402.87 787.20 402.65
  A 0.33 0.26 55.6 0 1 787.24 402.10
  Q 787.58 402.07 787.76 402.10
  Z"
/>
<path fill="#151515" d="
  M 846.29 402.63
  A 0.32 0.25 -50.5 0 1 846.30 402.13
  Q 846.65 401.85 846.84 402.02
  Q 847.13 402.27 846.84 402.50
  Q 846.55 402.73 846.29 402.63
  Z"
/>
<path fill="#151515" d="
  M 855.80 403.47
  Q 855.81 403.91 854.44 405.00
  A 0.25 0.25 0.0 0 1 854.06 404.69
  Q 854.65 403.53 854.65 403.49
  Q 854.65 403.46 854.02 402.32
  A 0.25 0.25 0.0 0 1 854.38 402.00
  Q 855.79 403.04 855.80 403.47
  Z"
/>
<path fill="#151515" d="
  M 916.36 403.38
  Q 915.34 402.68 915.32 402.65
  A 0.54 0.54 0.0 0 1 915.93 401.85
  Q 917.09 402.17 916.99 403.09
  A 0.41 0.40 20.1 0 1 916.36 403.38
  Z"
/>
<ellipse fill="#151515" cx="0.00" cy="0.00" transform="translate(823.44,404.07) rotate(-78.8)" rx="0.93" ry="0.60"/>
<path fill="#151515" d="
  M 804.16 404.26
  Q 804.49 403.90 806.52 404.11
  A 0.53 0.52 -46.7 0 1 806.55 405.15
  Q 806.25 405.20 804.48 405.06
  A 0.48 0.48 0.0 0 1 804.16 404.26
  Z"
/>
<path fill="#151515" d="
  M 939.04 408.93
  Q 938.84 408.70 939.01 408.28
  Q 939.12 408.01 939.50 408.04
  Q 939.95 408.07 939.67 408.64
  A 0.50 0.33 -57.6 0 1 939.04 408.93
  Z"
/>
<ellipse fill="#151515" cx="0.00" cy="0.00" transform="translate(743.31,409.81) rotate(-168.4)" rx="1.19" ry="0.56"/>
<path fill="#151515" d="
  M 745.91 409.67
  Q 746.25 409.17 746.58 409.50
  A 0.19 0.19 0.0 0 1 746.55 409.79
  L 746.24 410.00
  A 0.24 0.24 0.0 0 1 745.91 409.67
  Z"
/>
<path fill="#151515" d="
  M 740.08 412.90
  A 0.33 0.26 25.7 0 1 739.53 413.02
  Q 739.20 412.68 739.26 412.33
  A 0.31 0.29 -62.9 0 1 739.77 412.15
  Q 740.05 412.44 740.08 412.90
  Z"
/>
<path fill="#151515" d="
  M 948.11 412.01
  Q 948.25 411.77 949.37 411.97
  Q 949.88 412.07 949.86 412.46
  Q 949.84 412.92 949.56 413.00
  A 1.11 0.76 -0.2 0 1 948.11 412.01
  Z"
/>
<path fill="#151515" d="
  M 721.87 416.23
  Q 721.81 416.46 721.61 416.80
  A 0.27 0.26 53.8 0 1 721.13 416.71
  Q 721.04 416.39 721.57 416.02
  A 0.20 0.19 79.5 0 1 721.87 416.23
  Z"
/>
<circle fill="#151515" cx="974.49" cy="422.67" r="0.46"/>
<path fill="#151515" d="
  M 980.22 426.93
  Q 979.94 426.49 980.13 426.24
  A 0.44 0.34 75.3 0 1 980.74 426.71
  Q 980.70 426.99 980.40 427.02
  A 0.19 0.19 0.0 0 1 980.22 426.93
  Z"
/>
<path fill="#151515" d="
  M 1694.60 476.33
  A 2.18 2.18 0.0 0 1 1691.56 475.84
  L 1689.42 472.87
  A 6.16 4.59 54.2 0 1 1689.54 465.19
  L 1689.60 465.14
  A 6.16 4.59 54.2 0 1 1696.93 467.45
  L 1699.07 470.42
  A 2.18 2.18 0.0 0 1 1698.58 473.46
  L 1694.60 476.33
  Z"
/>
<path fill="#151515" d="
  M 1226.98 760.74
  Q 1226.94 759.67 1227.00 759.54
  A 0.55 0.53 -45.7 0 1 1228.01 759.51
  Q 1228.29 760.23 1227.54 760.96
  A 0.33 0.33 0.0 0 1 1226.98 760.74
  Z"
/>
<path fill="#151515" d="
  M 1230.98 764.92
  Q 1230.93 764.82 1231.00 764.17
  A 0.29 0.29 0.0 0 1 1231.54 764.05
  Q 1231.76 764.40 1231.75 764.50
  A 0.52 0.38 -64.7 0 1 1230.98 764.92
  Z"
/>
<path fill="#151515" d="
  M 1236.06 777.55
  Q 1236.24 777.23 1236.39 777.22
  A 0.43 0.36 -59.9 0 1 1236.53 777.98
  Q 1236.20 778.18 1236.05 777.97
  Q 1235.93 777.79 1236.06 777.55
  Z"
/>
<circle fill="#151515" cx="1242.46" cy="786.61" r="0.37"/>
<path fill="#151515" d="
  M 1256.55 814.97
  Q 1255.16 814.88 1253.76 816.76
  A 0.43 0.43 0.0 0 1 1252.99 816.58
  Q 1252.77 815.41 1253.53 814.80
  A 0.53 0.52 52.7 0 0 1253.62 814.08
  Q 1252.86 813.10 1254.53 812.02
  A 0.89 0.89 0.0 0 1 1255.89 812.58
  Q 1256.08 813.47 1256.84 814.41
  A 0.34 0.34 0.0 0 1 1256.55 814.97
  Z"
/>
<path fill="#151515" d="
  M 1261.51 828.14
  A 0.49 0.37 -70.4 0 1 1261.77 828.96
  C 1261.56 829.14 1261.05 828.88 1261.22 828.55
  Q 1261.41 828.19 1261.51 828.14
  Z"
/>
<ellipse fill="#151515" cx="0.00" cy="0.00" transform="translate(1272.45,865.95) rotate(-101.6)" rx="1.06" ry="0.46"/>
<path fill="#151515" d="
  M 1275.04 895.90
  Q 1275.04 895.91 1275.00 896.00
  A 0.16 0.10 -40.6 0 1 1274.74 896.04
  Q 1274.76 895.95 1274.67 895.96
  A 0.08 0.06 -50.8 0 1 1274.68 895.82
  Q 1274.77 895.77 1274.91 895.75
  A 0.15 0.11 86.7 0 1 1275.04 895.90
  Z"
/>
<path fill="#151515" d="
  M 908.84 1435.59
  C 912.33 1449.39 882.27 1457.60 885.06 1435.46
  C 886.22 1426.34 900.51 1430.23 905.79 1432.78
  Q 906.69 1433.21 908.31 1434.71
  A 1.76 1.75 14.1 0 1 908.84 1435.59
  Z"
/>
<path fill="#151515" d="
  M 1557.08 1579.26
  A 0.73 0.73 0.0 0 1 1555.66 1579.51
  Q 1552.98 1572.10 1549.79 1565.50
  A 0.46 0.45 74.7 0 1 1550.15 1564.84
  Q 1550.47 1564.82 1551.09 1565.41
  Q 1554.08 1568.29 1556.37 1570.85
  A 2.78 2.73 24.4 0 1 1557.08 1572.69
  L 1557.08 1579.26
  Z"
/>
</svg>
